<?xml version="1.0" encoding="UTF-8"?>
<svg id="Layer_1" data-name="Layer 1" xmlns="http://www.w3.org/2000/svg" viewBox="0 0 1206.09 300.61">
  <defs>
    <style>
      .cls-1 {
        fill: #22ff37;
      }
    </style>
  </defs>
  <path class="cls-1" d="M322.51,188.53c2.03-18.07-19.56-30.35-40.57-37.07,25.68-10.8,62.05-28.34,68.44-61.39.51-2.64,16.49,4.91,18.83,5.79-1.17-2.04-15.46-24.99-38.63-35.8-24.49-13.01-67.85-15.4-107.56-14.18,1.72-3.61,2.98-6.58,3.66-8.74-3.37,1.42-13.58,8.58-13.26,2.1.09-1.05,6.42-15.05,5.1-15.73-2.87,2.19-4.19,3.38-5.56,2.28-.78-1.37-5.42,1.65-3.02-12.12-.5-.77-.41-3.69-.91-4.47,6.72-21.89-9.63.52-17.37,13.01-5.57,8.74-11.66,17.78-17.98,26.86-23.17,2.21-39.07,4.66-39.07,4.66-18.1.58-52.01,2.04-67.77,9.63,9.25,0,21.03-.55,21.01,2.63-3.81,10.49-41.44,19.85-42.61,22.77-.29.29,18.76-.12,15.76,2.04-7.18,5.18-24.81,10.22-27.73,11.97-5.84,3.21-16.05,7.88-13.72,8.76,3.11-1.18,60.01-5.56,115.59-9.8-7.74,10.19-15.01,19.61-21.26,27.71-4.56,5.7-6.93,1.19-9.52,5.84-.17,2.48-.82,8.29-1.24,13.45-1.04,1.35-2.07,2.69-3.07,3.97-4.25,5.32-6.6,1.75-9,5.02-33.51,6.05-58.16,9.85-59.71,10.03,11.38,1.46,36.19,2.92,38.82,5.84,2.34,3.21-3.21,7.88-8.76,9.05,0,2.04,14.59,1.75,16.64,3.21,0,0,0,.29.29.29-3.28,5.15-24.28,12.63-27.18,17.55,6.92.02,22.53-1.74,40.48-4.13-1.84,9.06-5.01,23.65-4.37,24.16,5.34-7.1,23.31-10.32,20.04,5-1.23,5.73-2.23,10.97-2.22,14.07-2.55.78-4.05,1.39-4.08,1.77-25.39,4.96-50.49,8.46-64.79,9.92-18.39,1.46-32.4,2.34-36.19,3.5,2.92,2.04,65.64,13.82,65.64,13.82,2.1.77,2.14,3.74.06,4.55-11.43,4.48-36.84,11.55-38.26,13.44,4.09.29,26.85,2.33,48.45-.58,7.51,4.11-11.97,11.38-11.97,11.38,111.65-8,124.92-23.06,128.42-21.6,1.46.88-10.8,12.55-9.92,13.13,9.05-4.09,133.73-47,140.1-103.61ZM175.67,128.99c6.26-10.49,12.73-21.35,18.88-31.83,27.85-2.18,47.84-3.87,48.28-4.36,12.55-.58,24.22-.88,32.4-.88,9.92.29,15.16,4.58,14.01,7.59-5.42,14.25-62.53,30.19-121.65,43.08,2.69-4.53,5.4-9.08,8.07-13.6ZM255.09,190.86c-.58,7.3-34.52,26.05-84.06,37.07-6.43,1.43-46.63,9.52-63.06,14.03,5.68-7.57,16.96-24.3,20.45-32.21.26-.51.54-1.05.84-1.61,3.43-5.08,7.03-10.69,9.73-15.39,21.46-3.25,38.23-5.97,38.35-5.97,68.79-11.14,78.63-1.46,77.75,4.09Z"/>
  <path class="cls-1" d="M1175.44,69.55c-1.17-3.21-9.92-3.21-6.13-7.3,5.25-4.38,31.52-6.42,36.77-9.92l-37.36.58s-172.2,5.54-190.3,7.88c1.75.88,16.64,4.09,13.72,7.88-3.75,4.84-22.56,10.86-39.42,15.63-1.89-.14-4.15-.05-5.7-.56-2.63-.88-1.75-3.8,1.46-8.46,1.46-2.92,25.39-19.26,25.68-19.85-5.84.58-20.14,6.13-27.44,6.71-5.55.29-8.17,1.17-12.84,0-4.09-1.17-4.67-3.21-4.67-4.67.29-3.21,15.18-10.8,13.72-11.09,0,0-110.53,11.23-163.45,14.59-5.25.58-23.35,1.46-25.1,2.63,1.75,3.5,11.67,3.5,21.01,5.25,3.5.58,6.71,2.63,8.46,4.38,5.55,5.55-9.92,5.84-11.38,9.92,3.21,3.21,6.13,7.59,4.38,9.34-2.34,2.34-13.13,7.01-16.64,9.34-6.42,4.09-14.01,8.17-13.13,9.63,11.09,0,80.85-8.17,103.03-10.51-42.21,22.52-109.44,76.07-144.32,105.36,1.53-7.01,3.22-14.41,5.05-22.14,6.25-14.51,40.52-32.4,40.52-32.4-3.32-.35-17.02.43-32.82,1.54,5.03-19.17,10.82-39.53,17.39-60.24,4.95-15.6,14.01-35.02,21.01-48.45-2.04-1.17-15.47,14.01-18.39,14.3-3.5.88.29-5.84-1.46-7.3-.58-.29-14.59,7-21.31,9.92-4.09,1.75-20.38,3.84-16.64-10.21.64-2.41,7.88-16.34,18.1-24.22-13.43,4.09-61.88,39.11-87.85,61,0,0-72.68,64.5-92.52,85.22-14.42.95-28.65,1.89-35.4,1.91-3.83-1.28-8.05-2.9-6.25-4.53,8.76-7.59,34.73-18.68,30.65-18.97-.88-.58-8.76-4.96-2.63-9.92,2.33-2.63,16.34-5.84,21.89-7.59,1.75,0,.88-1.75-1.75-1.75-26.85.58-65.38,1.75-100.4,3.5,6.13-8.76,12.26-17.22,18.39-24.23,41.15-5.25,85.52-8.46,103.61-7.88-2.92-1.75-4.96-3.8-4.96-6.42-.29-1.17,4.96-6.13,11.09-10.51,4.38-2.92,16.93-5.25,16.93-5.84,0-.88-16.34-1.46-17.22-1.75-5.84-1.17,4.96-8.76,12.26-11.38,8.17-2.92,13.72-4.38,20.72-5.55,6.13-.87,14.3-3.21,15.47-4.38-2.63-.58-7.3-1.46-18.39-1.75-23.64-.58-71.51-.88-116.46,1.46-13.05,1.01,3.82-.2-15.76,1.17l-10.51.58c-7.04.7-3.9.46-7.88.87-16.03,1.67-32.69,3.8-43.78,6.13-8.76,1.75-19.56,6.13-24.23,9.05,7.3-.58,19.26-2.33,29.48-.58.88.87,1.17,2.33,1.17,3.5-.58,4.09-21.31,17.22-22.77,18.39,8.47,2.92.58,6.13-4.67,10.8-5.25,4.38-9.34,7.3-14.89,10.21-11.38,6.13-15.76,7.3-15.47,10.22,9.34-.88,23.93-3.21,35.61-5.55l-12.55,18.97c-1.46,2.04-10.4,13.55-10.21,14.3.29,2.92-38.82,12.84-39.11,16.34,3.8,2.04,22.59,8.92,14.89,23.93,0,0-17.76,39.91-43.2,49.62-3.33,1.27-26.85,9.05-28.02,12.55-.29.88,19.56-2.33,24.22-1.17,7.01,2.04,11.97,5.25,12.84,6.42,2.92,2.92,4.67,6.42,1.17,11.67-1.46,2.04-12.26,8.76-14.88,10.51,15.18-2.63,24.22-4.96,31.52-7,5.25-1.46,11.37-2.71,37.07-6.42,44.35-5.97,106.3-11.66,136.73-15.46.22,0,.44-.04.66-.08.58-.07,1.15-.14,1.7-.22,0-.1-.06-.21-.17-.34,6.75-3.49,14.99-19.59,19.76-14.55-3.54,19.78-14.01,41.15-14.89,50.78,9.05-11.38,50.49-62.17,66.84-80.55,25.68-3.5,51.08-7,75.3-9.92-.29.88-.58,2.04-.58,2.92-7.59,37.07-13.13,78.8-13.43,91.35,1.75-1.17,17.91-50.17,29.77-49.62,3.09.14,4.43,3.26,5.23,6.55-5.42,4.18-10.78,9.07-11.02,9.53,12.55-2.04,22.77,1.14,27.44,2.89,3.79,1.46,4.96,2.63,5.25,4.09,0,3.21-11.38,14.89-9.92,14.89,11.09-3.8,21.89-8.46,32.98-11.38,12.26-3.21,37.94-6.13,47.87-7.3,21.01-2.63,28.6-2.92,46.12-4.38,22.77-2.04,45.59-3.55,57.27-4.72,7-.58,16.34-2.63,23.06-3.79,0-3.5-29.48-2.04-29.48-7.88,0-6.42,42.9-18.68,46.7-20.14,1.46-2.33-9.34-2.63-10.51-3.79-1.75-1.75,1.17-5.55,4.67-7,6.71-2.63,21.31-5.84,27.73-7.59-17.8-.87-108.93,2.67-153.87,8.51,1.77-1.37,4.37-3.41,7.62-5.96.56-.3,2.37-1.7,5.78-4.52.22-.18.44-.36.66-.54,3.8-2.99,8.1-6.36,12.72-9.99,44.22-33.12,87.15-48.17,87.15-48.17,0,0-9-1.29-21.98.17-.84.09-1.23-1.02-.55-1.52,6.4-4.69,12-8.66,16.29-11.49,21.56-15.95,42.43-30.51,58.88-40.36,13.48.44,29.27,1.89,28.55,7.49-.58,4.09-8.17,9.05-15.76,11.97-2.92,1.17-21.89,8.17-25.1,11.97.58,1.17,16.34.88,18.97.29,16.05-2.92,35.9-6.71,56.91-10.22l10.22-1.46c-8.76,13.13-80.56,132.8-85.81,148.85,1.46-1.75,6.13-7.59,8.76-6.42,1.17.29,2.33.88,3.5,1.75,6.71,4.09-2.34,16.05-2.34,23.93,3.5-4.38,10.22-12.55,14.3-15.18,4.09-2.63,6.42-6.13,11.38-6.13,4.67.29,9.34,2.92,9.34,5.84,0,4.67-4.38,33.27-1.46,32.4,3.5-6.42,18.68-35.32,30.65-56.33,24.52-42.91,60.12-102.45,81.14-131.34.87-1.46,3.5-4.38,6.13-7.3,16.34-2.04,30.94-3.5,41.74-4.67l35.61-5.25c.88-2.34-15.76-.88-18.68-7.3-2.71-8.32,16.92-8.21,25.1-16.05ZM503.2,211.94c-28.45.4-72.44,2.84-110.09,5.78,5.25-9.34,11.09-19.85,17.51-30.65,27.53-3.54,55.57-7.34,88.87-9.49,4.13,3.61,15.79,3.91,14.07,8.32-.29,1.17,4.67,3.5,6.71,5.54-5.32,6.08-11.32,13.16-17.07,20.49ZM660.66,157.88c-13.72,1.46-27.14,3.21-39.69,4.96,21.31-21.6,41.45-41.15,54.58-54.29-5.25,13.72-10.51,31.23-14.89,49.33Z"/>
</svg>