<svg xmlns="http://www.w3.org/2000/svg" viewBox="0 0 441.49 199.75"><defs><style>.cls-1{fill:#28004b;}.cls-2{fill:#ff6715;}.cls-3{fill:#00edff;}.cls-4{fill:#32ed5e;}.cls-5{fill:#ff006e;}.cls-6{fill:#8d7dff;}.cls-7{fill:#b515ff;}</style></defs><g id="Layer_2" data-name="Layer 2"><g id="Layer_1-2" data-name="Layer 1"><path class="cls-1" d="M433.33,119.91a248.15,248.15,0,0,0-44.62-54.63l-17.4-14.62a246.68,246.68,0,0,0-55.12-31.88L294.83,11A247.41,247.41,0,0,0,232.11,0H209.38a247.41,247.41,0,0,0-62.72,11L125.3,18.78A246.68,246.68,0,0,0,70.18,50.66L52.77,65.28q-8.84,8.13-16.84,17L25.71,94.49A248.84,248.84,0,0,0,8.16,119.91L0,133.45l114.83,66.3,7.68-12.34,5.16-7.95,3.59-4.37c.8-1,1.62-2,2.46-2.93l5.62-5.58,5-5.15,2.33-2.09,2.8-2.2a114.92,114.92,0,0,1,28.41-16.42l3.36-1.35,3.51-1.15a114.79,114.79,0,0,1,32.31-5.67l3.67-.11,3.68.11a114.79,114.79,0,0,1,32.31,5.67l3.53,1.15,3.34,1.35A114.92,114.92,0,0,1,292,157.14l2.8,2.21,2.8,2.51A115.61,115.61,0,0,1,318.73,187l7.93,12.75,114.83-66.3Z"/><path class="cls-2" d="M74.48,67,139.88,145a131,131,0,0,1,32.23-18.64L137.3,30.67A231.6,231.6,0,0,0,74.48,67Zm71.12,42.24L135.5,91.78l-7.06,4.09,10.1,17.46-9.52,5.5-24.31-42,9.52-5.5,9.4,16.26,7.06-4.08-9.4-16.27,9.52-5.5,24.31,42.05Z"/><path class="cls-3" d="M224.9,15.29V117a130.76,130.76,0,0,1,36.67,6.43l34.81-95.64A231.56,231.56,0,0,0,224.9,15.29Zm38.43,50-1.6,9.48-11.2-1.89L248.83,83l11.7,2-1.59,9.48-22.55-3.79,8.05-47.91L267,46.54,265.4,56l-11.71-2-1.57,9.33Z"/><path class="cls-4" d="M179.92,123.47A130.69,130.69,0,0,1,216.59,117V15.29a231.51,231.51,0,0,0-71.48,12.54Zm17.41-71.13-11.68,2.11,1.68,9.32,11.18-2,1.71,9.46-11.18,2,1.83,10.1,11.68-2.11,1.71,9.46-22.5,4.07L173.12,47l22.5-4.07Z"/><path class="cls-5" d="M21.45,127.92l88.14,50.88a131.19,131.19,0,0,1,23.93-28.5l-65.4-78A232.66,232.66,0,0,0,21.45,127.92ZM77.77,97.59l31.63,37.87-7.07,8.42L78.44,128.39l19.39,20.85-7.07,8.42L48,133.06l7.21-8.59,24.73,16.3L60.16,118.56l5.44-6.47,25.34,15.57L70.56,106.18Z"/><path class="cls-6" d="M304.19,30.67l-34.81,95.64A131,131,0,0,1,301.61,145L367,67A231.6,231.6,0,0,0,304.19,30.67Zm5.29,86.38-19.85-11.34,24.09-42.18L323.27,69l-19.33,33.83,10.31,5.89Z"/><path class="cls-7" d="M373.37,72.35,308,150.3a131.24,131.24,0,0,1,23.94,28.5L420,127.92A232.86,232.86,0,0,0,373.37,72.35Zm5.76,57.22-30.74,10.34,8,9.51-7.34,6.21-15.9-18.8,7.07-6,30.22-10.28-7.53-8.9,7.35-6.21,15.56,18.41Z"/></g></g></svg>