<?xml version="1.0" encoding="UTF-8"?>
<svg id="Layer_1" data-name="Layer 1" xmlns="http://www.w3.org/2000/svg" viewBox="0 0 700.71 172.5">
  <defs>
    <style>
      .cls-1 {
        fill: #ff2463;
      }

      .cls-1, .cls-2, .cls-3 {
        stroke-width: 0px;
      }

      .cls-2 {
        fill: #ffe100;
      }

      .cls-3 {
        fill: #fff;
      }
    </style>
  </defs>
  <g>
    <path class="cls-2" d="M24.89,86.75c0-36.67,26.19-60.87,60.14-60.87,16.98,0,30.7,5.78,39.55,13.73,7.22,6.5,11.2,14.45,11.2,22.03,0,9.03-5.78,16.98-17.7,16.98-8.67,0-13.73-3.79-17.16-8.85-2.89-4.34-6.86-11.02-16.8-11.02-14.63,0-23.84,11.38-23.84,27.99s9.21,27.99,23.84,27.99c10.29,0,15.35-4.34,20.05-8.31,4.15-3.61,8.13-7.04,15.71-7.04,10.66,0,15.89,5.78,15.89,14.99,0,4.88-2.71,10.47-7.41,15.71-8.85,9.39-24.56,17.52-43.89,17.52-33.41,0-59.6-24.2-59.6-60.87Z"/>
    <path class="cls-2" d="M142.86,132.62c0-11.02,4.15-15.17,14.45-39.37l22.58-52.74c4.15-9.75,7.95-15.17,19.69-15.17s15.53,5.42,19.69,15.17l22.58,52.74c10.47,24.38,14.63,28.36,14.63,39.37,0,8.67-6.86,14.27-18.06,14.27-8.31,0-14.45-2.71-17.7-10.84-1.63-3.97-2.35-7.59-3.43-11.92-.72-2.89-3.07-4.88-5.96-4.88h-23.3c-3.07,0-5.42,1.99-6.14,5.06-.9,4.33-1.63,7.95-3.25,11.74-3.43,8.13-9.57,10.84-17.88,10.84-11.2,0-17.88-5.6-17.88-14.27ZM203,94.33c3.25,0,5.6-2.89,4.33-5.96l-4.33-11.02c-1.99-5.06-4.88-5.06-6.86,0l-4.33,11.02c-1.26,3.07,1.08,5.96,4.33,5.96h6.86Z"/>
    <path class="cls-3" d="M371.84,40.87c0,9.21-7.4,15.17-16.08,25.47l-12.82,15.17c-2.53,3.07-2.53,5.96,0,9.03l14.09,16.62c8.67,10.29,16.08,16.26,16.08,25.47,0,8.67-6.86,14.27-16.8,14.27s-14.27-2.71-19.14-10.84c-3.61-6.14-7.41-12.46-13.73-21.67-2.89-4.15-5.96-4.15-8.67,0-6.32,9.39-9.93,15.71-13.55,21.67-4.88,8.13-9.75,10.84-19.32,10.84s-16.62-5.6-16.62-14.27c0-9.21,7.22-15.17,15.89-25.47l14.09-16.62c2.53-3.07,2.53-5.96,0-9.03l-12.82-15.17c-8.67-10.29-15.89-16.26-15.89-25.47,0-8.67,6.68-14.27,16.62-14.27s14.45,2.71,19.33,10.84c5.78,9.75,9.03,14.27,12.28,19.69,2.53,4.15,6.14,4.15,8.67,0,5.42-8.31,8.13-12.64,12.46-19.69,4.88-8.13,9.57-10.84,19.14-10.84,10.29,0,16.8,5.6,16.8,14.27Z"/>
    <path class="cls-2" d="M381.51,131c0-11.02,2.35-18.96,2.35-44.25s-2.35-33.23-2.35-44.25c0-9.93,5.78-15.89,18.78-15.89s18.6,5.96,18.6,15.89c0,11.02-2.35,18.96-2.35,44.25s2.35,33.23,2.35,44.25c0,9.93-5.78,15.89-18.6,15.89s-18.78-5.96-18.78-15.89Z"/>
    <path class="cls-2" d="M429.6,131c0-11.02,2.35-18.96,2.35-44.25s-2.35-33.23-2.35-44.25c0-9.93,5.78-15.89,16.98-15.89,9.75,0,13.73,2.17,16.8,5.78,7.77,9.21,11.2,17.34,24.02,38.47,1.63,2.53,3.07,5.42,5.06,8.13,2.53,3.61,6.14,2.89,6.14-1.81-.72-19.51-2.17-26.01-2.17-34.68,0-9.93,5.78-15.89,18.6-15.89s18.78,5.96,18.78,15.89c0,11.02-2.35,18.96-2.35,44.25s2.35,33.23,2.35,44.25c0,9.93-5.78,15.89-16.98,15.89-8.49,0-12.46-2.17-15.53-5.78-6.68-7.95-10.11-16.44-24.02-39.01-1.99-3.07-3.61-6.5-6.32-9.93-2.53-3.25-6.14-2.89-6.14,1.99.72,21.13,2.17,27.99,2.17,36.84,0,9.93-5.78,15.89-18.6,15.89s-18.78-5.96-18.78-15.89Z"/>
    <g>
      <path class="cls-2" d="M542.71,86.75c0-36.67,26.19-60.87,59.6-60.87s59.6,24.2,59.6,60.87-26.19,60.87-59.6,60.87-59.6-24.2-59.6-60.87ZM626.33,86.75c0-16.8-9.57-28.18-24.02-28.18s-24.02,11.38-24.02,28.18,9.57,28.17,24.02,28.17,24.02-11.38,24.02-28.17Z"/>
      <path class="cls-1" d="M602.31.99c-19.68,0-37.37,6.16-51.43,16.77-6.96-9.43-18.72-16.04-35.85-16.04-14.29,0-26,4.94-33.66,13.45-10.96-12.02-25.04-13.45-34.79-13.45-8.55,0-16.18,2.06-22.53,5.69-6.63-3.65-14.65-5.69-23.75-5.69s-17.15,1.98-23.41,5.32c-6.25-3.39-13.65-5.32-21.85-5.32-15.4,0-26.97,5.19-35.85,16.23-8.89-11.03-20.52-16.23-36.03-16.23-20.39,0-36.44,12.52-40.49,30.27l-.52-1.22c-3.86-9.07-12.9-30.31-42.59-30.31s-39.06,22.02-42.57,30.27l-2.79,6.52c-3.21-5.82-7.57-11.27-12.99-16.15C126.79,8.13,106.83.99,85.03.99c-23.26,0-44.67,8.47-60.28,23.85C8.79,40.57,0,62.56,0,86.75c0,48.89,36.32,85.76,84.49,85.76,16.19,0,32.05-4.37,45.25-12.12,7.61,7.14,18.42,11.39,31,11.39,22.69,0,33.77-12.48,38.9-22.04,5.14,9.73,16.11,22.04,38.76,22.04,8.35,0,15.9-1.89,22.28-5.2,6.14,3.31,13.34,5.2,21.22,5.2,16.28,0,28.29-5.73,37.3-17.86,9.04,12.15,20.97,17.86,37.11,17.86,7.81,0,14.96-1.84,21.08-5.07,6.17,3.19,13.77,5.07,22.91,5.07s17.24-2.07,23.89-5.77c6.39,3.61,14.41,5.77,24.2,5.77,14.69,0,26.65-5.22,34.29-14.16,8.29,9.53,19.47,14.16,34.16,14.16s26.79-6.03,34.12-15.99c14.04,10.58,31.71,16.71,51.35,16.71,48.17,0,84.49-36.87,84.49-85.76S650.48.99,602.31.99Z"/>
    </g>
  </g>
  <g>
    <path class="cls-2" d="M24.89,86.75c0-36.67,26.19-60.87,60.14-60.87,16.98,0,30.7,5.78,39.55,13.73,7.22,6.5,11.2,14.45,11.2,22.03,0,9.03-5.78,16.98-17.7,16.98-8.67,0-13.73-3.79-17.16-8.85-2.89-4.34-6.86-11.02-16.8-11.02-14.63,0-23.84,11.38-23.84,27.99s9.21,27.99,23.84,27.99c10.29,0,15.35-4.34,20.05-8.31,4.15-3.61,8.13-7.04,15.71-7.04,10.66,0,15.89,5.78,15.89,14.99,0,4.88-2.71,10.47-7.41,15.71-8.85,9.39-24.56,17.52-43.89,17.52-33.41,0-59.6-24.2-59.6-60.87Z"/>
    <path class="cls-2" d="M142.86,132.62c0-11.02,4.15-15.17,14.45-39.37l22.58-52.74c4.15-9.75,7.95-15.17,19.69-15.17s15.53,5.42,19.69,15.17l22.58,52.74c10.47,24.38,14.63,28.36,14.63,39.37,0,8.67-6.86,14.27-18.06,14.27-8.31,0-14.45-2.71-17.7-10.84-1.63-3.97-2.35-7.59-3.43-11.92-.72-2.89-3.07-4.88-5.96-4.88h-23.3c-3.07,0-5.42,1.99-6.14,5.06-.9,4.33-1.63,7.95-3.25,11.74-3.43,8.13-9.57,10.84-17.88,10.84-11.2,0-17.88-5.6-17.88-14.27ZM203,94.33c3.25,0,5.6-2.89,4.33-5.96l-4.33-11.02c-1.99-5.06-4.88-5.06-6.86,0l-4.33,11.02c-1.26,3.07,1.08,5.96,4.33,5.96h6.86Z"/>
    <path class="cls-3" d="M371.84,40.87c0,9.21-7.4,15.17-16.08,25.47l-12.82,15.17c-2.53,3.07-2.53,5.96,0,9.03l14.09,16.62c8.67,10.29,16.08,16.26,16.08,25.47,0,8.67-6.86,14.27-16.8,14.27s-14.27-2.71-19.14-10.84c-3.61-6.14-7.41-12.46-13.73-21.67-2.89-4.15-5.96-4.15-8.67,0-6.32,9.39-9.93,15.71-13.55,21.67-4.88,8.13-9.75,10.84-19.32,10.84s-16.62-5.6-16.62-14.27c0-9.21,7.22-15.17,15.89-25.47l14.09-16.62c2.53-3.07,2.53-5.96,0-9.03l-12.82-15.17c-8.67-10.29-15.89-16.26-15.89-25.47,0-8.67,6.68-14.27,16.62-14.27s14.45,2.71,19.33,10.84c5.78,9.75,9.03,14.27,12.28,19.69,2.53,4.15,6.14,4.15,8.67,0,5.42-8.31,8.13-12.64,12.46-19.69,4.88-8.13,9.57-10.84,19.14-10.84,10.29,0,16.8,5.6,16.8,14.27Z"/>
    <path class="cls-2" d="M381.51,131c0-11.02,2.35-18.96,2.35-44.25s-2.35-33.23-2.35-44.25c0-9.93,5.78-15.89,18.78-15.89s18.6,5.96,18.6,15.89c0,11.02-2.35,18.96-2.35,44.25s2.35,33.23,2.35,44.25c0,9.93-5.78,15.89-18.6,15.89s-18.78-5.96-18.78-15.89Z"/>
    <path class="cls-2" d="M429.6,131c0-11.02,2.35-18.96,2.35-44.25s-2.35-33.23-2.35-44.25c0-9.93,5.78-15.89,16.98-15.89,9.75,0,13.73,2.17,16.8,5.78,7.77,9.21,11.2,17.34,24.02,38.47,1.63,2.53,3.07,5.42,5.06,8.13,2.53,3.61,6.14,2.89,6.14-1.81-.72-19.51-2.17-26.01-2.17-34.68,0-9.93,5.78-15.89,18.6-15.89s18.78,5.96,18.78,15.89c0,11.02-2.35,18.96-2.35,44.25s2.35,33.23,2.35,44.25c0,9.93-5.78,15.89-16.98,15.89-8.49,0-12.46-2.17-15.53-5.78-6.68-7.95-10.11-16.44-24.02-39.01-1.99-3.07-3.61-6.5-6.32-9.93-2.53-3.25-6.14-2.89-6.14,1.99.72,21.13,2.17,27.99,2.17,36.84,0,9.93-5.78,15.89-18.6,15.89s-18.78-5.96-18.78-15.89Z"/>
    <path class="cls-2" d="M542.71,86.75c0-36.67,26.19-60.87,59.6-60.87s59.6,24.2,59.6,60.87-26.19,60.87-59.6,60.87-59.6-24.2-59.6-60.87ZM626.33,86.75c0-16.8-9.57-28.18-24.02-28.18s-24.02,11.38-24.02,28.18,9.57,28.17,24.02,28.17,24.02-11.38,24.02-28.17Z"/>
  </g>
  <path class="cls-1" d="M674.75,13.72c0-9.54,6.32-13.72,13.02-13.72s12.94,4.18,12.94,13.72-6.32,13.76-13.02,13.76-12.94-4.03-12.94-13.76ZM697.12,13.72c0-6.51-3.81-10.36-9.39-10.36s-9.51,3.81-9.51,10.36,3.7,10.39,9.47,10.39,9.43-3.7,9.43-10.39ZM682.66,18.57v-9.96c0-1.18.67-1.85,1.85-1.85h2.7c4.59,0,6.47,1.52,6.47,4.85,0,2.4-.98,4.03-3.21,4.76l2.23,2.58c.71.82.27,1.5-.77,1.5h-.47c-.96,0-1.41-.42-1.96-1.07l-2.18-2.59h-1.31v1.78c0,1.55-.83,1.88-1.68,1.88-1.14,0-1.66-.6-1.66-1.88ZM687.32,13.87c2.48,0,3.03-.52,3.03-2.07s-.55-2.03-3.03-2.03h-1.33v4.11h1.33Z"/>
</svg>