<?xml version="1.0" encoding="UTF-8"?>
<svg id="Layer_1" data-name="Layer 1" xmlns="http://www.w3.org/2000/svg" viewBox="0 0 429.43 139.17">
  <defs>
    <style>
      .cls-1 {
        fill: #002bff;
        stroke-width: 0px;
      }
    </style>
  </defs>
  <path class="cls-1" d="M108.73,93.99c-2.86,4.6-6.46,8.61-10.7,11.93-4.23,3.32-8.99,5.85-14.14,7.53-4.65,1.52-9.46,2.28-14.31,2.28-.52,0-1.04,0-1.55-.03-5.38-.18-10.65-1.3-15.68-3.33-5.01-2.02-9.59-4.87-13.6-8.47-4.02-3.61-7.35-7.85-9.88-12.62-1.25-2.36-2.31-4.85-3.14-7.4-.83-2.55-1.44-5.18-1.82-7.83-.76-5.35-.58-10.74.54-16.02,1.12-5.27,3.14-10.27,5.99-14.85,2.86-4.6,6.46-8.61,10.7-11.93,4.23-3.32,8.99-5.85,14.14-7.53,4.65-1.52,9.46-2.28,14.31-2.28.52,0,1.04,0,1.55.03,5.38.18,10.65,1.3,15.68,3.33,5.01,2.02,9.59,4.87,13.6,8.47,4.02,3.61,7.35,7.85,9.88,12.62.67,1.26,1.28,2.56,1.84,3.89l6.54-2.74h0s11.84-4.95,11.84-4.95l3.25-1.36h.01c-.06-.14-.11-.27-.17-.4-.05-.11-.09-.23-.14-.34-.07-.16-.14-.31-.21-.47-.07-.16-.14-.32-.21-.48,0-.02-.02-.04-.02-.05-.04-.08-.08-.17-.11-.25-.01-.03-.03-.06-.04-.09-.02-.04-.04-.08-.06-.13-.06-.14-.13-.27-.19-.4-.09-.18-.17-.37-.26-.55-.03-.06-.06-.12-.09-.18-.21-.43-.41-.85-.63-1.27-.06-.11-.11-.22-.17-.34,0,0,0,0,0,0,0,0,0,0,0,0-.06-.11-.12-.22-.17-.33,0,0,0,0,0,0-.13-.25-.26-.5-.39-.75-.07-.12-.13-.24-.2-.36-.03-.05-.05-.1-.08-.15-.1-.19-.21-.37-.31-.55-.06-.11-.13-.23-.19-.34-.11-.2-.23-.39-.34-.59-.02-.04-.04-.07-.06-.11-.01-.02-.03-.05-.04-.07-.12-.21-.24-.42-.37-.62-.18-.29-.35-.59-.53-.88-.1-.17-.2-.33-.31-.5-.15-.25-.31-.49-.47-.73-.07-.1-.13-.2-.2-.31-.07-.11-.14-.21-.21-.32-.12-.19-.25-.37-.38-.56-.06-.09-.12-.18-.18-.27-.04-.05-.07-.11-.11-.16-.02-.02-.03-.05-.05-.07-.03-.04-.05-.08-.08-.11-.04-.05-.08-.11-.11-.16-.2-.29-.4-.57-.61-.86-.04-.06-.09-.12-.13-.18,0,0,0,0-.01-.01,0,0-.01-.02-.02-.03-.05-.07-.1-.13-.14-.2-.01-.02-.02-.03-.03-.05-.2-.28-.41-.56-.62-.83-.16-.21-.33-.42-.49-.64,0,0,0,0,0,0,0,0,0,0,0,0-.16-.21-.33-.43-.49-.64-.21-.27-.43-.54-.65-.81-.01-.02-.03-.03-.04-.05-.06-.07-.12-.14-.17-.21-.05-.06-.1-.12-.15-.19-.22-.27-.45-.54-.68-.8-.03-.03-.06-.07-.09-.1-.02-.02-.03-.04-.05-.05-.08-.09-.16-.18-.24-.27-.07-.07-.13-.15-.2-.22-.02-.02-.04-.04-.05-.06-.11-.12-.21-.24-.32-.37-.04-.05-.08-.1-.13-.14-.02-.02-.03-.04-.05-.05-.07-.08-.14-.15-.21-.23-.27-.29-.53-.58-.8-.87-.01-.01-.02-.02-.03-.03-.13-.14-.27-.28-.4-.42-.24-.25-.47-.49-.71-.74-.06-.06-.13-.13-.19-.19-.13-.13-.25-.25-.38-.38-.19-.19-.37-.37-.56-.55,0,0,0,0,0,0-.25-.24-.49-.47-.74-.71-.14-.13-.27-.26-.41-.38,0,0-.01-.01-.02-.02,0,0-.02-.02-.03-.03-.2-.18-.4-.36-.6-.54,0,0,0,0-.01-.01,0,0,0,0,0,0-.09-.08-.18-.16-.27-.24-.09-.08-.19-.17-.28-.25-.09-.08-.19-.17-.29-.25-.08-.06-.15-.13-.23-.2-.03-.03-.06-.05-.09-.08,0,0,0,0,0,0-.16-.13-.31-.27-.47-.4-.05-.04-.1-.09-.15-.13-.27-.23-.54-.45-.81-.67-.03-.02-.06-.05-.09-.07-.03-.03-.07-.05-.1-.08-.07-.06-.14-.11-.21-.17-.02-.01-.03-.02-.05-.04-.07-.05-.13-.11-.2-.16-.2-.16-.41-.33-.61-.49-.21-.16-.43-.33-.64-.49,0,0,0,0,0,0,0,0,0,0,0,0-.21-.16-.43-.33-.64-.49-.17-.13-.34-.25-.52-.38-.11-.08-.22-.16-.32-.24,0,0-.01,0-.02-.01,0,0-.02-.01-.03-.02-.08-.05-.15-.11-.23-.16-.05-.03-.09-.07-.14-.1-.02-.01-.03-.03-.05-.04-.29-.2-.57-.4-.86-.6-.01,0-.03-.02-.04-.03-.04-.03-.08-.06-.12-.08-.03-.02-.07-.05-.1-.07-.03-.02-.05-.04-.08-.05-.12-.08-.25-.17-.38-.25-.02-.01-.04-.02-.05-.04-.01,0-.03-.02-.04-.03-.18-.12-.35-.24-.53-.35-.11-.07-.21-.14-.32-.2-.35-.22-.69-.44-1.04-.66-.11-.07-.22-.14-.33-.2-.06-.03-.11-.07-.17-.1-.29-.18-.59-.35-.88-.53-.23-.14-.46-.27-.69-.4-.12-.07-.24-.14-.37-.21-.11-.06-.22-.13-.33-.19-.3-.17-.6-.33-.9-.49-.04-.02-.08-.04-.12-.06-.13-.07-.26-.14-.4-.21-.25-.13-.5-.26-.75-.39,0,0-.01,0-.02,0-.09-.04-.17-.09-.26-.14-.02-.01-.04-.02-.06-.03-.11-.06-.23-.11-.34-.17-.31-.15-.62-.3-.92-.45-.05-.02-.1-.05-.15-.07-.05-.02-.09-.04-.13-.07-.02-.01-.04-.02-.07-.03-.06-.03-.12-.06-.18-.09-.32-.15-.63-.3-.95-.44-.07-.03-.15-.07-.22-.1,0,0,0,0-.01,0-.08-.04-.16-.07-.24-.11,0,0-.02,0-.03-.01,0,0-.02,0-.03-.01-.32-.14-.63-.28-.95-.41-.21-.09-.42-.18-.63-.26-.04-.02-.07-.03-.11-.05,0,0,0,0,0,0-.04-.02-.09-.04-.13-.05-.2-.08-.41-.17-.61-.25-.32-.13-.65-.25-.97-.37,0,0-.02,0-.03,0,0,0-.02,0-.03-.01-.03-.01-.06-.02-.09-.04-.05-.02-.11-.04-.16-.06-.07-.03-.14-.05-.21-.08,0,0,0,0-.01,0-.33-.12-.66-.24-.99-.36-.06-.02-.13-.04-.19-.07-.07-.02-.14-.05-.21-.07-.06-.02-.11-.04-.17-.06-.09-.03-.18-.06-.26-.09-.23-.08-.46-.16-.7-.24-.12-.04-.24-.08-.36-.12-.12-.04-.23-.07-.35-.11,0,0,0,0-.01,0,0,0,0,0,0,0-.27-.09-.54-.17-.81-.25-.08-.02-.15-.05-.23-.07-.11-.03-.22-.07-.33-.1-.33-.1-.66-.19-.99-.28-.26-.07-.52-.14-.78-.21-.26-.07-.52-.14-.78-.2-.19-.05-.39-.09-.58-.14-.14-.03-.28-.07-.42-.1-.19-.04-.38-.09-.57-.13-.15-.03-.3-.07-.45-.1-.12-.03-.25-.05-.37-.08,0,0,0,0-.01,0,0,0,0,0-.01,0-.12-.03-.24-.05-.35-.08-.11-.02-.22-.05-.32-.07-.02,0-.03,0-.05,0-.04,0-.08-.02-.13-.02-.18-.04-.36-.07-.54-.1-.17-.03-.34-.07-.51-.1-.01,0-.03,0-.04,0-.06-.01-.12-.02-.18-.03-.05,0-.1-.02-.15-.03-.02,0-.03,0-.05,0-.11-.02-.21-.04-.32-.05-.24-.04-.48-.08-.72-.12-.02,0-.05,0-.07-.01-.05,0-.11-.02-.16-.02-.09-.01-.18-.03-.27-.04,0,0,0,0-.01,0-.01,0-.03,0-.04,0-.34-.05-.68-.11-1.03-.15-.06,0-.13-.02-.19-.02-.2-.03-.41-.05-.61-.08,0,0,0,0,0,0-.06,0-.12-.01-.18-.02-.21-.03-.41-.05-.62-.08-.16-.02-.32-.03-.49-.05-.18-.02-.36-.04-.54-.06-.02,0-.04,0-.06,0-.04,0-.08,0-.12-.01-.05,0-.1-.01-.15-.02-.07,0-.14-.01-.21-.02-.01,0-.02,0-.03,0-.35-.03-.7-.06-1.05-.09-.07,0-.13-.01-.2-.02-.05,0-.09,0-.14,0-.03,0-.06,0-.08,0-.06,0-.11,0-.17-.01-.12,0-.23-.02-.35-.02-.23-.01-.45-.03-.68-.04-.01,0-.03,0-.04,0-.11,0-.23-.01-.34-.02-.12,0-.24,0-.36-.01-.29-.01-.58-.03-.88-.04-.2,0-.39-.01-.59-.02-.34,0-.68-.01-1.02-.02,0,0-.01,0-.02,0-.15,0-.3,0-.45,0-.11,0-.22,0-.33,0h0c-.27,0-.54,0-.8,0-.34,0-.68.01-1.02.02-.19,0-.39.01-.58.02-.1,0-.2,0-.31.01-.18,0-.36.02-.54.03,0,0-.02,0-.02,0-.06,0-.12,0-.18,0-.06,0-.12,0-.18,0-.08,0-.17,0-.25.01-.04,0-.09,0-.13,0-.22.01-.45.03-.67.05-.17.01-.34.02-.52.04-.07,0-.15,0-.22.02,0,0,0,0,0,0-.06,0-.13.01-.19.02-.26.02-.51.05-.77.07-.09,0-.18.02-.28.03-.08,0-.16.02-.24.03-.01,0-.02,0-.03,0-.08,0-.16.02-.24.03-.02,0-.04,0-.06,0-.34.04-.69.08-1.03.12-.13.02-.27.04-.4.05-.13.02-.27.04-.4.05-.27.04-.53.07-.8.11-.34.05-.68.11-1.03.16-.02,0-.04,0-.06,0-.04,0-.09.01-.13.02-.05,0-.09.01-.13.02-.08.01-.16.03-.24.04-.35.06-.69.12-1.03.19-.07.01-.13.02-.2.04-.07.01-.15.03-.22.04,0,0-.01,0-.02,0-.02,0-.05.01-.07.01-.05.01-.1.02-.15.03-.31.06-.62.12-.93.18-.03,0-.07.02-.1.02-.09.02-.18.04-.27.06-.12.03-.24.05-.35.08,0,0-.01,0-.02,0,0,0,0,0,0,0-.28.06-.55.12-.83.19-.14.03-.29.07-.43.1-.05.01-.09.02-.14.03-.33.08-.66.16-.99.25-.26.07-.52.14-.78.21-.15.04-.3.08-.45.12-.11.03-.22.06-.33.09-.33.09-.66.19-.98.29-.19.06-.37.11-.56.17-.22.07-.44.14-.67.21-.05.02-.09.03-.14.05,0,0,0,0-.01,0-.12.04-.23.07-.35.11,0,0,0,0,0,0-.12.04-.24.08-.36.12-.21.07-.43.15-.64.22-.06.02-.11.04-.17.06-.12.04-.25.09-.37.13-.05.02-.1.04-.16.05-.02,0-.04.02-.06.02-.04.02-.08.03-.13.05-.33.12-.66.24-.99.36-.07.03-.14.05-.21.08,0,0-.01,0-.02,0-.08.03-.17.07-.25.1-.02,0-.04.01-.05.02-.32.12-.64.25-.97.38-.25.1-.5.21-.74.31,0,0,0,0,0,0-.18.08-.36.15-.54.23-.07.03-.13.05-.2.08-.32.14-.63.28-.95.42,0,0,0,0-.01,0-.01,0-.03.01-.04.02-.08.04-.17.08-.25.11-.03.01-.06.03-.08.04-.05.02-.09.04-.13.06-.32.15-.64.3-.95.45-.03.01-.06.03-.09.04-.03.01-.06.03-.09.04-.07.03-.13.07-.2.1-.1.05-.21.1-.31.15-.05.03-.1.05-.15.08-.2.1-.4.2-.61.3-.11.06-.23.12-.34.17-.19.1-.38.2-.56.3-.18.09-.35.18-.53.28-.06.03-.11.06-.16.09-.12.06-.23.13-.35.19-.16.09-.33.18-.49.27-.13.07-.27.15-.4.22-.23.13-.47.27-.7.4-.23.13-.46.27-.69.41-.29.18-.59.35-.88.53-.17.1-.33.2-.5.31-.24.15-.48.3-.71.46,0,0-.01,0-.02.01-.1.07-.2.13-.31.2-.11.07-.21.14-.32.21-.19.12-.37.25-.56.38-.14.1-.29.19-.43.29-.06.04-.12.08-.18.13-.01,0-.02.02-.04.03-.04.03-.09.06-.13.09-.18.13-.37.26-.55.39-.1.07-.2.14-.31.22-.06.05-.13.09-.19.14-.06.04-.12.09-.18.13-.02.01-.03.02-.05.03-.02.01-.03.02-.05.03-.18.13-.36.27-.54.4-.1.07-.2.14-.29.22-.21.16-.43.33-.64.49,0,0,0,0,0,0-.17.13-.35.27-.52.4-.04.03-.08.06-.12.09-.02.01-.04.03-.06.04-.25.2-.5.4-.75.61,0,0-.02.02-.03.02,0,0-.01,0-.02.01-.02.02-.04.04-.07.05-.05.04-.1.08-.15.12-.06.05-.13.1-.19.15-.27.22-.54.45-.8.68-.05.04-.1.09-.15.13-.04.03-.07.06-.1.09-.02.02-.04.04-.06.06-.13.11-.26.23-.39.34-.17.15-.34.3-.51.45-.09.08-.19.17-.28.25-.09.08-.18.16-.27.25,0,0,0,0,0,0-.03.03-.06.06-.09.08-.18.17-.37.33-.55.5-.09.08-.17.16-.26.24-.06.05-.11.1-.17.16-.25.24-.49.47-.74.71-.19.19-.38.38-.57.57-.09.09-.19.19-.28.28-.09.1-.19.19-.28.29-.24.25-.47.49-.71.74-.13.14-.27.28-.4.43-.05.06-.11.12-.16.18-.14.15-.27.3-.41.45,0,0-.01.01-.02.02-.08.09-.16.18-.24.27-.08.09-.17.19-.25.28-.31.35-.62.71-.93,1.07-.04.05-.09.1-.13.15-.23.27-.45.54-.67.81-.05.06-.1.13-.15.19-.06.07-.11.14-.17.21-.01.01-.02.03-.04.04-.22.27-.43.54-.65.81-.15.19-.29.37-.43.56-.02.03-.04.05-.06.08-.14.18-.28.37-.42.55-.02.03-.05.06-.07.09-.21.28-.41.56-.61.84-.01.02-.02.03-.03.05-.05.07-.11.15-.16.22-.01.02-.03.04-.04.06-.03.04-.06.09-.1.13-.1.14-.2.29-.3.44-.1.14-.2.28-.3.43-.02.03-.04.05-.06.08-.02.03-.04.06-.06.08-.06.09-.12.18-.18.27,0,0,0,0,0,.01,0,.01-.01.02-.02.03-.07.1-.13.2-.2.3-.13.19-.25.37-.38.56-.07.11-.14.21-.21.32-.22.35-.44.69-.66,1.04-.1.17-.2.33-.3.5-.18.29-.35.59-.53.88-.14.23-.27.46-.4.7-.13.23-.27.47-.4.7-.17.3-.33.6-.49.9-.09.17-.18.34-.28.52-.13.25-.26.5-.39.75,0,0,0,.01-.01.02,0,0,0,0,0,0-.05.11-.11.21-.16.32-.03.06-.06.12-.09.19-.03.05-.05.1-.08.15-.21.42-.42.85-.62,1.27-.03.06-.06.12-.08.18,0,0,0,0,0,0,0,.02-.01.03-.02.05-.14.3-.28.6-.42.91-.03.07-.06.14-.09.2,0,0,0,.01,0,.02-.02.04-.04.08-.06.13-.02.04-.04.08-.06.13,0,0,0,0,0,0l-.02.05c-.04.09-.08.19-.12.28-.1.22-.2.45-.29.67-.07.17-.14.33-.21.5-.03.08-.07.16-.1.25,0,0,0,0,0,0,0,0,0,0,0,0-.1.25-.2.5-.3.74-.13.32-.25.65-.37.97,0,0,0,.01,0,.02,0,.01,0,.02-.01.04-.03.09-.07.17-.1.26-.03.07-.06.15-.08.22-.12.33-.24.66-.36.99-.02.05-.04.1-.05.15,0,.01,0,.02-.01.04-.16.45-.31.89-.45,1.34-.04.12-.08.24-.12.36-.04.12-.07.23-.11.35,0,0,0,.01,0,.02-.08.27-.17.54-.25.81-.06.19-.11.37-.17.56-.1.33-.19.66-.28.99-.07.26-.14.52-.21.78-.07.26-.14.52-.2.78-.02.08-.04.16-.06.23-.06.25-.13.51-.18.76-.04.19-.09.38-.13.57-.04.19-.08.38-.12.57-.02.09-.04.17-.06.26,0,0,0,.01,0,.02-.03.12-.05.24-.08.35-.01.06-.03.13-.04.19-.01.06-.02.12-.04.18-.03.15-.06.3-.09.46-.01.07-.03.14-.04.21-.03.17-.07.34-.1.51-.01.07-.03.15-.04.22,0,.03-.01.06-.02.09,0,.04-.01.07-.02.11-.06.34-.12.69-.18,1.04,0,.02,0,.03,0,.05,0,.06-.02.12-.03.19-.01.06-.02.13-.03.19,0,.03,0,.05-.01.08,0,.02,0,.04,0,.06-.03.2-.06.39-.09.59-.02.15-.04.29-.07.44-.04.26-.07.53-.1.8,0,0,0,0,0,0-.02.17-.04.34-.06.52-.01.09-.02.19-.04.28-.04.34-.08.69-.11,1.03,0,.02,0,.04,0,.06,0,.05,0,.1-.01.15,0,.04,0,.08-.01.12,0,.04,0,.07-.01.11,0,.04,0,.09-.01.13-.01.12-.02.24-.03.36-.02.23-.04.46-.06.69,0,.05,0,.09-.01.14,0,.02,0,.04,0,.07,0,.04,0,.07,0,.11,0,.04,0,.08,0,.12-.01.17-.02.34-.03.51,0,.14-.02.27-.03.41,0,.09-.01.18-.02.27,0,.13-.01.25-.02.38,0,.12,0,.24-.01.36,0,0,0,.02,0,.02-.01.28-.03.56-.03.85,0,.2-.01.39-.02.59,0,.34-.01.68-.02,1.02,0,.27,0,.54,0,.8,0,.27,0,.54,0,.8,0,0,0,0,0,0,0,.34.01.68.02,1.02,0,.19.01.39.02.58,0,.17.02.35.02.52,0,.11.01.22.02.33,0,0,0,0,0,.01,0,0,0,0,0,.01,0,.12.01.24.02.36,0,.13.01.25.02.38.02.32.04.64.07.95.01.15.02.31.03.46,0,.01,0,.03,0,.04,0,.05,0,.11.01.16.02.2.04.39.05.59.01.15.03.3.04.46,0,.08.02.16.02.23,0,0,0,0,0,0,0,.09.02.18.03.27,0,.02,0,.04,0,.06.04.34.08.69.12,1.03.03.27.07.53.11.8.01.08.02.16.03.24.02.18.05.37.08.55.05.34.11.68.16,1.03,0,.02,0,.04,0,.06.01.09.03.18.04.27.01.08.03.16.04.24.06.35.12.69.19,1.03,0,0,0,.01,0,.02.01.06.02.12.03.18.03.16.06.31.09.47.02.08.03.16.05.24,0,0,0,0,0,.01.04.22.09.44.13.66.03.12.05.25.08.37.01.07.03.14.05.21.01.05.02.1.03.15,0,0,0,.01,0,.02,0,0,0,0,0,0,.06.28.12.55.19.83.04.19.09.38.14.57.08.33.16.66.25.99.03.13.07.26.11.4.03.13.07.25.1.38.05.19.1.37.16.56.02.07.04.14.06.21.09.33.19.66.29.98.03.08.05.17.08.25.03.1.06.21.09.31.08.27.17.54.26.81,0,0,0,.01,0,.02.02.07.04.14.07.21.01.05.03.09.04.14.03.1.07.21.1.31,0,.02.01.03.02.05,0,.02.02.04.02.07.07.19.13.38.2.57.04.12.08.24.12.35.02.04.03.09.05.13.02.07.05.14.07.21.01.03.02.07.04.1.01.03.02.06.03.09.03.1.07.19.1.28.09.23.17.47.26.7.02.06.05.12.07.18,0,.02.01.03.02.05.03.07.05.14.08.21,0,.02.01.03.02.05,0,.02.01.04.02.05.13.32.25.64.38.97.1.25.21.5.31.74,0,0,0,0,0,0,.1.25.21.49.31.74.14.32.28.63.42.95,0,.01.01.02.02.04,0,0,0,.01,0,.02.01.03.03.06.04.08.03.06.05.11.08.17.02.04.04.08.06.13.01.03.03.06.04.09.05.12.11.23.16.35.09.2.19.4.28.6.02.03.03.07.05.1.01.03.03.05.04.08.03.07.07.13.1.2.08.15.15.31.23.46.1.2.2.41.3.61.06.11.12.23.17.34.06.11.11.21.17.32,0,0,0,0,0,.01,0,0,0,0,0,0,.06.11.12.22.17.33.07.14.15.28.22.42.09.17.19.34.28.51.16.3.33.6.5.89.13.23.27.47.4.7.13.23.27.46.41.69.18.29.35.58.53.88.1.17.2.33.31.5.22.35.44.69.67,1.04.07.11.14.21.21.32.12.19.25.37.38.56.1.14.19.29.29.43.02.03.04.06.07.1.02.03.04.06.06.09.02.03.05.07.07.1.02.02.03.04.05.07.12.17.25.35.37.52.08.11.16.23.24.34.02.02.03.04.05.07.03.04.06.09.09.13.02.03.05.06.07.1.03.04.06.08.09.13,0,0,.01.01.02.02,0,0,.01.02.02.02.11.15.23.31.34.46.09.12.18.25.27.37.16.21.33.43.49.64,0,0,0,0,0,0,.09.12.19.24.28.36.07.09.14.18.21.27.22.27.43.54.65.81,0,0,0,0,0,0,0,.01.02.02.03.04.03.04.07.08.1.12.03.03.05.06.08.09.04.05.09.1.13.16,0,0,.02.02.02.03.01.02.03.03.04.05.21.25.42.5.64.75.03.04.07.08.1.12,0,0,.02.02.03.03.02.03.05.05.07.08.03.03.05.06.08.09.06.07.12.13.17.2.2.23.41.47.61.7,0,0,0,0,.01.01.08.09.16.18.24.27.03.03.06.06.09.09.05.06.11.12.16.17,0,0,0,.01.01.02.19.21.38.42.57.62.07.07.13.14.2.21.07.07.14.14.2.21.24.25.47.49.71.74.19.19.38.38.57.57.19.19.38.38.57.56,0,0,0,0,0,0,.24.24.49.47.73.7.14.13.28.27.43.4.21.19.42.38.63.57,0,0,0,0,0,0,0,0,.01,0,.02.01.09.08.18.16.27.24.02.02.03.03.05.05.08.07.15.14.23.21.05.04.09.08.14.12.12.11.25.22.38.32.13.11.26.23.39.34.03.02.05.04.08.06.03.03.06.05.09.08.04.03.07.06.11.09.02.01.03.03.05.04.27.23.54.45.81.67.06.05.12.1.19.15.07.06.14.12.22.17.01.01.03.02.04.04.27.22.54.43.81.65.06.04.12.09.17.13.15.12.31.24.47.36,0,0,0,0,0,0,.16.12.32.24.48.37.05.04.11.08.16.12.16.12.32.24.48.35.12.09.24.17.35.26.02.01.03.02.05.03.07.05.15.11.22.16.06.04.11.08.17.12.01,0,.02.01.03.02.29.2.57.4.86.6.06.04.11.08.17.11.06.04.12.08.18.12,0,0,.02.01.03.02.06.04.12.08.18.12.26.18.52.35.78.52.11.07.21.14.32.21.1.07.2.13.31.19,0,0,.01,0,.02.01.2.13.4.25.6.38.04.02.08.05.12.07.05.03.09.06.14.08.12.07.24.15.36.22.29.18.58.35.88.53.23.14.46.27.7.4.23.13.47.27.7.4.3.17.6.33.9.49.14.08.29.15.43.23.03.01.06.03.08.04.25.13.51.26.76.39,0,0,0,0,.01,0,.07.04.14.07.21.11.04.02.07.04.11.06.11.06.22.11.34.17.1.05.19.09.29.14.19.09.39.19.58.28.07.03.13.07.2.1.07.03.13.07.2.1,0,0,.02,0,.03.01.05.02.1.05.15.07.09.04.19.09.28.13.22.1.45.21.67.31.04.02.09.04.13.06.03.01.06.03.09.04.08.04.17.07.25.11.02,0,.03.01.05.02,0,0,0,0,0,0,.32.14.63.28.95.41.25.1.49.21.74.31,0,0,0,0,0,0,.25.1.5.2.75.3.32.13.64.25.97.37,0,0,0,0,.01,0,.01,0,.03.01.04.02.09.03.17.06.26.1.08.03.15.06.23.09.23.08.46.17.69.25.1.04.2.07.3.11.02,0,.04.01.06.02.04.02.09.03.13.05.01,0,.03,0,.04.01.06.02.11.04.17.06.16.06.33.11.49.17.04.01.07.02.11.04.18.06.35.12.53.18.12.04.24.08.36.12.11.04.23.07.35.11,0,0,.01,0,.02,0,.27.08.54.17.81.25.19.06.37.11.56.17.05.02.11.03.16.05.27.08.55.16.82.23.15.04.3.08.46.12.11.03.21.06.32.09.15.04.31.08.47.12.1.03.21.05.31.08.19.05.38.09.57.14.14.03.29.07.43.1.07.02.15.03.22.05.12.03.23.06.35.08.2.05.41.09.61.13.07.02.15.03.22.05,0,0,0,0,0,0,0,0,0,0,0,0,.06.01.12.03.18.04.06.01.12.03.19.04.12.03.25.05.37.08.22.04.44.08.66.13.17.03.34.07.51.1,0,0,.02,0,.03,0,.06.01.13.03.19.04.07.01.13.02.2.04.3.05.6.1.89.15.05,0,.09.02.14.02.02,0,.05,0,.07.01.05,0,.11.02.16.03.09.01.18.03.27.04.02,0,.04,0,.06,0,.34.05.68.11,1.03.15.27.04.53.07.8.1,0,0,0,0,0,0,.09.01.18.02.27.03.18.02.35.05.53.07.34.04.69.08,1.03.11.02,0,.04,0,.06,0,.09,0,.18.02.27.03.05,0,.11.01.16.02.03,0,.05,0,.08,0,.14.01.28.02.43.04.21.02.41.04.62.05.07,0,.13.01.2.02.07,0,.14,0,.21.01.1,0,.19.01.29.02.05,0,.1,0,.15,0,.03,0,.06,0,.1,0,.13,0,.26.02.38.02.1,0,.19.01.29.02.05,0,.1,0,.16,0,.07,0,.15,0,.22.01.12,0,.24,0,.36.01,0,0,.02,0,.02,0,.28.01.56.03.85.03.2,0,.39.01.59.02.34,0,.68.01,1.02.02h0c.15,0,.3,0,.46,0,.11,0,.23,0,.34,0,.27,0,.54,0,.8,0,.34,0,.68-.01,1.02-.02.19,0,.39-.01.58-.02.28-.01.56-.03.85-.04,0,0,.02,0,.02,0,.12,0,.24-.01.36-.02.04,0,.09,0,.13,0,.08,0,.17,0,.25-.01.31-.02.63-.04.94-.07.08,0,.17-.01.25-.02.07,0,.15-.01.22-.02.05,0,.1,0,.15-.01.02,0,.03,0,.05,0,.35-.03.7-.06,1.05-.1.07,0,.15-.02.22-.02,0,0,.01,0,.02,0,0,0,.01,0,.02,0,.08,0,.17-.02.25-.03,0,0,.02,0,.03,0,0,0,.02,0,.03,0,.19-.02.38-.04.56-.06.16-.02.31-.03.47-.05.27-.03.53-.07.8-.11.14-.02.27-.04.41-.06.13-.02.26-.03.39-.05.34-.05.68-.11,1.03-.16.02,0,.03,0,.05,0,0,0,0,0,.01,0,.04,0,.07-.01.11-.02.05,0,.11-.02.16-.03.04,0,.08-.01.12-.02.04,0,.08-.01.12-.02.13-.02.27-.05.4-.07.21-.04.42-.07.63-.11.03,0,.05,0,.08-.01.04,0,.08-.02.12-.02.14-.03.28-.06.42-.08.1-.02.2-.04.3-.06.22-.04.44-.09.66-.13.12-.03.25-.05.37-.08.04,0,.08-.02.12-.03.08-.02.16-.04.23-.05,0,0,0,0,0,0,0,0,0,0,.01,0,.28-.06.55-.12.83-.19.12-.03.24-.06.36-.09.07-.02.14-.03.2-.05.33-.08.66-.16.99-.25.13-.03.26-.07.39-.1.13-.03.26-.07.39-.1.26-.07.52-.14.77-.21.1-.03.19-.06.29-.08.23-.07.46-.13.69-.2.07-.02.14-.04.21-.06.12-.04.24-.07.35-.11.18-.06.36-.12.54-.17.21-.07.42-.13.63-.2.05-.02.1-.03.15-.05.07-.02.14-.05.21-.07.19-.06.38-.13.57-.2.02,0,.04-.02.07-.02.02,0,.04-.01.06-.02.14-.05.29-.1.43-.15.05-.02.1-.03.15-.05.02,0,.04-.01.06-.02.02,0,.04-.01.05-.02.05-.02.09-.03.14-.05.19-.07.37-.14.56-.21.14-.05.29-.1.43-.16.07-.03.14-.05.21-.08,0,0,.01,0,.02,0,.01,0,.02,0,.04-.01.07-.03.15-.06.22-.09.02,0,.04-.01.05-.02.32-.13.64-.25.97-.38.25-.1.5-.21.74-.31,0,0,0,0,0,0,.08-.03.16-.07.24-.1.17-.07.34-.14.5-.21.25-.11.5-.22.74-.33.07-.03.14-.06.21-.09,0,0,0,0,.01,0,.01,0,.03-.01.04-.02.08-.04.17-.08.25-.11.07-.03.14-.06.22-.1.32-.15.64-.3.95-.45.06-.03.12-.06.18-.09.43-.21.85-.41,1.27-.63.07-.04.15-.08.22-.11.04-.02.07-.04.11-.06.01,0,.03-.01.04-.02.1-.05.19-.1.29-.15,0,0,0,0,.01,0,.25-.13.5-.26.75-.39.13-.07.27-.14.4-.22.04-.02.08-.04.12-.06.11-.06.22-.12.34-.19.19-.1.37-.21.56-.31.07-.04.14-.08.21-.12.16-.09.33-.19.49-.28.11-.06.21-.13.32-.19.12-.07.25-.14.37-.22.29-.18.59-.35.88-.53.11-.07.22-.14.33-.2.06-.04.11-.07.17-.11.24-.15.48-.3.71-.46,0,0,.01,0,.02-.01.1-.07.2-.13.3-.2.05-.03.09-.06.14-.09.06-.04.12-.08.18-.12.2-.13.4-.27.6-.41,0,0,.02-.01.03-.02.12-.08.24-.16.36-.24.06-.04.12-.08.18-.13.05-.04.11-.08.16-.11.29-.2.57-.4.86-.61.07-.05.13-.09.19-.14.02-.02.04-.03.06-.05.05-.04.11-.08.16-.12,0,0,.02-.01.03-.02,0,0,.01,0,.02-.01.28-.2.56-.41.83-.62.21-.16.43-.33.64-.49,0,0,0,0,0,0,.15-.12.3-.23.45-.35.06-.05.12-.09.18-.14.27-.21.54-.43.81-.65,0,0,0,0,0,0,.01-.01.03-.02.04-.03.03-.03.06-.05.1-.08.04-.03.08-.06.12-.1.06-.05.12-.1.19-.15.27-.22.54-.45.8-.68.05-.04.1-.09.15-.13.02-.02.04-.03.06-.05.04-.03.07-.07.11-.1.01-.01.02-.02.04-.03.29-.25.58-.5.86-.76,0,0,0,0,0,0,.09-.08.18-.16.27-.25.04-.04.08-.07.12-.11.05-.05.1-.09.15-.14,0,0,0,0,0,0,0,0,0,0,.01,0,.21-.19.42-.38.62-.57.04-.04.09-.08.13-.13.1-.09.19-.18.29-.28.17-.16.33-.32.5-.48.08-.08.16-.15.24-.23.19-.19.38-.38.57-.57.19-.19.38-.38.56-.57.24-.25.47-.49.71-.74.03-.03.06-.06.09-.09.1-.11.21-.22.31-.33.19-.21.38-.42.57-.63,0,0,0,0,.01-.01,0,0,0,0,0,0,.06-.06.11-.13.17-.19.02-.03.05-.05.07-.08.08-.09.17-.19.25-.28.15-.17.3-.34.44-.51.07-.08.14-.16.21-.24.04-.05.09-.1.13-.15.02-.02.04-.04.05-.06.03-.04.06-.07.09-.11.04-.05.09-.1.13-.15.16-.19.32-.38.48-.57.07-.08.13-.16.2-.24.05-.06.1-.13.15-.19,0-.01.02-.02.02-.03.05-.06.1-.12.15-.18,0,0,.01-.01.02-.02,0,0,.01-.02.02-.02.1-.12.19-.24.28-.36.12-.15.24-.3.36-.46.12-.15.23-.3.34-.45.05-.06.1-.13.15-.19,0,0,0,0,0,0,0,0,0,0,0,0,.05-.07.1-.13.15-.2.11-.15.22-.29.33-.44.19-.26.38-.51.56-.77.02-.02.03-.04.05-.06.01-.02.02-.03.03-.05.05-.06.09-.13.14-.19,0-.01.02-.02.02-.03.03-.04.06-.08.09-.12.02-.02.04-.05.05-.07.03-.05.06-.09.1-.14.17-.24.34-.48.5-.72.04-.06.08-.11.11-.17.01-.02.03-.04.04-.06.03-.04.05-.08.08-.12.1-.14.19-.29.29-.43.13-.19.25-.37.38-.56.07-.11.14-.21.21-.32.22-.35.44-.69.66-1.04.03-.04.05-.09.08-.13.08-.12.15-.25.23-.37.18-.29.35-.58.53-.88.06-.1.11-.19.17-.29.08-.14.16-.27.24-.41.07-.12.13-.23.2-.35.07-.12.13-.23.2-.35.17-.3.33-.6.49-.9.03-.05.05-.1.08-.15.07-.12.13-.24.19-.36.19-.36.38-.73.56-1.1.06-.11.11-.23.17-.34.21-.42.42-.85.62-1.27.02-.04.04-.08.06-.13,0-.02.02-.04.03-.05.15-.32.3-.64.44-.96.03-.07.06-.15.1-.22.03-.06.05-.11.07-.17.01-.03.02-.06.04-.08,0,0,0-.02.01-.02,0,0,0-.02.01-.03.11-.26.23-.52.34-.78.02-.06.05-.11.07-.17.06-.14.12-.29.18-.44.04-.09.08-.19.12-.28l-21.7-8.9c-.98,2.38-2.16,4.68-3.53,6.89ZM109.6,17.04h0s.11.08.11.08c.17.13.33.25.5.38.26.2.51.41.77.62h.02s.02.03.02.03l.07.06.13.1.1.08.08.06c.26.21.51.42.77.64l.12.1.02.02c.08.06.15.13.22.19l.18.15.07.06.06.05.19.16c.1.09.2.17.3.26.09.08.18.16.27.24.04.04.08.07.12.11l.13.12h0s0,.01,0,.01l.09.08c.17.15.34.31.51.46.14.13.27.25.41.38.24.22.47.45.7.67.18.18.36.36.55.54.18.18.36.36.54.54.23.23.45.46.68.7.13.13.26.27.38.4.25.27.51.55.8.87.08.09.16.17.23.26.09.1.18.2.26.3l.17.19.02.02.02.02.17.19c.08.09.17.19.24.28l.05.06.08.09c.22.25.43.51.65.76l.07.08.08.09.14.17.03.04.03.04c.21.25.41.51.62.77.12.15.23.3.35.45l.12.15-10.14,7.84c-1.96-2.53-4.14-4.89-6.55-7.04-1.07-.96-2.18-1.87-3.32-2.74l7.77-10.21ZM60.93,4.11c.18-.02.36-.05.55-.07.33-.04.65-.08.98-.11h.03s0,0,0,0h0s.08,0,.08,0l.17-.02h.14s.1-.02.1-.02c.33-.03.66-.06,1-.09h.13s.06-.02.06-.02h.07s.1-.01.14-.01c.14-.01.27-.02.41-.03h.09s.25-.02.25-.02c.13,0,.26-.02.39-.03.11,0,.21-.01.32-.02h.04c.05,0,.11,0,.16-.01h.18s.02,0,.02,0h.13c.23-.02.45-.03.67-.04.18,0,.37-.01.56-.02.32,0,.65-.02.97-.02.25,0,.51,0,.77,0h.33c.15,0,.29,0,.43,0,.32,0,.65,0,.97.02.18,0,.37,0,.55.01.36.01.74.03,1.17.05h.05s.31.02.31.02c.13,0,.27.02.4.03l.25.02h.08c.14.01.27.02.4.03.05,0,.1,0,.15,0h.07s.19.02.19.02c.33.03.66.05.99.08h.1s.13.02.13.02l.17.02h.08s.03.01.03.01h.03c.33.04.65.07.98.11.05,0,.11.01.16.02h0s.59.08.59.08l-1.63,12.72c-1.64-.21-3.29-.35-4.95-.4-.6-.02-1.2-.03-1.79-.03-2.39,0-4.78.16-7.15.49l-1.72-12.71.21-.03ZM4.13,78.45l-.03-.21c-.02-.18-.05-.36-.07-.55-.04-.33-.08-.65-.11-.99v-.04s-.02-.1-.02-.1l-.02-.16v-.13s-.02-.1-.02-.1c-.03-.33-.06-.66-.09-.98v-.08s-.02-.12-.02-.12c-.04-.48-.07-.91-.1-1.34,0-.12-.01-.24-.02-.36,0-.05,0-.11,0-.16v-.15s0-.01,0-.01v-.02s0,0,0,0h0s0-.14,0-.14c-.01-.22-.02-.45-.03-.67,0-.19-.01-.37-.02-.56,0-.32-.02-.65-.02-.97,0-.25,0-.51,0-.77,0-.25,0-.51,0-.76,0-.32,0-.65.02-.97,0-.19,0-.37.01-.56,0-.22.02-.45.03-.67v-.11s0-.03,0-.03h0s0-.02,0-.02v-.16c0-.05.01-.11.01-.16v-.02s0,0,0,0c0-.11.01-.23.02-.34,0-.14.02-.27.03-.41l.02-.23v-.13c.02-.12.02-.24.03-.36v-.14s.01-.07.01-.07v-.07s.01-.12.01-.12c.03-.33.05-.66.08-.99v-.1s.02-.12.02-.12l.02-.18v-.09s.01-.02.01-.02v-.03c.04-.33.07-.65.11-.98.02-.18.05-.37.07-.55v-.03s.04-.17.04-.17l12.71,1.63c-.59,4.61-.58,9.27.05,13.89l-12.71,1.72ZM17.04,29.57l.13-.16c.11-.15.22-.29.34-.44.2-.26.41-.51.62-.78l.02-.02h0s0-.01,0-.01l.06-.07.11-.13.08-.1.06-.08c.21-.26.42-.51.64-.77l.08-.09.04-.05c.3-.35.59-.69.88-1.02.08-.09.15-.17.24-.27.04-.04.08-.08.11-.12l.09-.1h0s0-.02,0-.02h0s.02-.02.02-.02l.08-.09c.16-.17.31-.34.47-.51.13-.14.25-.27.38-.4.22-.24.45-.47.67-.7.18-.18.36-.36.54-.55.18-.18.36-.36.54-.54.23-.23.46-.45.7-.68.13-.13.27-.26.4-.38.26-.24.54-.5.86-.79l.03-.02c.08-.07.16-.15.24-.22.1-.09.2-.17.3-.26l.19-.17.07-.06c.1-.09.2-.18.3-.26.04-.03.07-.06.11-.1l.05-.04.05-.04.1-.08c.25-.22.51-.43.76-.64l.08-.06.1-.08.13-.11.06-.05.05-.04c.25-.21.51-.41.77-.62.14-.11.28-.22.43-.33l.17-.13,7.84,10.15c-.09.07-.17.13-.26.2-3.59,2.81-6.78,6.05-9.52,9.67l-10.21-7.77ZM29.58,122.13l-.09-.06c-.17-.13-.35-.26-.52-.4-.26-.2-.52-.41-.78-.62l-.02-.02h-.01s0-.01,0-.01l-.02-.02-.18-.14-.1-.08-.08-.06c-.26-.21-.51-.42-.77-.64l-.09-.07-.06-.05-.05-.04s-.07-.06-.11-.09c-.11-.09-.22-.19-.33-.28l-.05-.04-.18-.15c-.1-.09-.2-.18-.3-.26-.08-.07-.16-.14-.24-.22l-.03-.02s-.08-.07-.12-.11l-.12-.11-.03-.03h0s-.07-.07-.07-.07c-.17-.15-.34-.31-.51-.46-.14-.13-.27-.25-.41-.38-.24-.22-.47-.45-.7-.67-.18-.18-.36-.36-.55-.54-.18-.18-.36-.36-.54-.54-.23-.23-.45-.46-.68-.7-.13-.13-.25-.27-.38-.4-.16-.17-.31-.34-.47-.51l-.07-.07s-.03-.04-.05-.06l-.1-.11s-.07-.08-.11-.12c-.08-.09-.16-.18-.24-.27-.15-.17-.31-.35-.46-.52l-.12-.14h0s0-.01,0-.01l-.04-.05-.11-.13s-.06-.07-.1-.11l-.05-.06-.12-.14c-.22-.25-.43-.51-.65-.76l-.06-.07-.08-.1-.1-.13-.07-.09-.03-.03c-.21-.25-.42-.51-.62-.77-.13-.16-.26-.33-.38-.49l-.09-.11h0s10.14-7.85,10.14-7.85c1.96,2.53,4.14,4.89,6.55,7.04,1.07.96,2.18,1.87,3.32,2.74l-7.77,10.2ZM78.45,135.04h-.09c-.22.04-.45.07-.67.1-.33.04-.65.08-.97.11h-.02s-.04,0-.04,0h-.08s-.18.03-.18.03h-.13s-.1.02-.1.02c-.33.03-.66.06-.99.09h-.14s-.05.02-.05.02h-.06c-.05,0-.1.01-.14.01h-.15s-.09.02-.09.02h-.15c-.25.03-.5.05-.74.06-.11,0-.22.01-.32.02h-.04c-.05,0-.11,0-.16.01h-.17s-.01,0-.01,0h-.02s-.12,0-.12,0c-.23.01-.46.02-.68.03-.18,0-.37.01-.56.02-.32,0-.65.02-.97.02-.25,0-.51,0-.76,0h-.33c-.15,0-.29,0-.43,0-.32,0-.65,0-.97-.02-.18,0-.37,0-.55-.01-.23,0-.47-.02-.7-.03h-.11s-.04,0-.04,0h-.16c-.05,0-.11-.01-.18-.01-.12,0-.23-.01-.35-.02-.13,0-.27-.02-.4-.03l-.25-.02h-.12s-.1-.01-.1-.01h-.23c-.08-.02-.16-.02-.24-.03h-.07s-.13-.01-.13-.01c-.33-.03-.66-.05-.99-.08h-.1s-.13-.02-.13-.02l-.17-.02h-.08s-.04-.01-.04-.01h-.03c-.33-.04-.65-.07-.98-.11-.18-.02-.37-.05-.55-.07h-.09s-.11-.03-.11-.03l1.63-12.71c1.64.21,3.29.35,4.95.4.6.02,1.2.03,1.79.03,2.39,0,4.78-.16,7.15-.49l1.72,12.71h0ZM122.11,109.63l-.11.14c-.11.15-.22.29-.34.44-.2.26-.41.51-.62.78v.02s-.03.02-.03.02l-.06.08-.1.12-.09.11-.06.08c-.21.26-.42.51-.64.76l-.08.09-.05.06-.04.05s-.06.07-.09.11c-.09.1-.17.2-.26.3l-.06.07-.16.18c-.09.1-.18.2-.26.3-.07.08-.14.16-.21.24l-.03.03s-.07.08-.11.12l-.12.13-.02.02h0s-.08.09-.08.09c-.15.17-.3.34-.45.5-.13.14-.25.27-.38.41-.22.24-.45.47-.67.7-.18.18-.35.36-.54.55-.18.18-.36.36-.54.54-.23.23-.46.45-.7.68-.13.13-.27.26-.4.38-.17.16-.35.32-.52.48l-.06.06-.03.02-.13.12s-.08.07-.12.11c-.09.08-.18.16-.27.24-.32.29-.66.58-1.01.89l-.04.04-.1.09c-.25.22-.51.43-.76.64l-.08.06-.1.08-.16.13-.05.04-.04.03c-.25.21-.51.41-.77.62-.14.11-.29.22-.43.34l-.17.13-7.84-10.15c.09-.07.17-.13.26-.2,3.59-2.81,6.78-6.05,9.52-9.67l10.21,7.77-.02.03ZM225.59,108.63h25.66v-55.11h-25.66v55.11ZM343.4,71.04h30.79v.22l-31.8,23.65v13.72h64.48v-17.52h-32.13v-.11l32.13-23.99v-13.5h-63.48v17.52ZM307.92,52.41c-12.83,0-20.53,4.46-23.54,12.05h-.22l.34-10.93h-25.66v77.2h25.66v-20.86c0-2.9-.34-8.03-.45-10.71h.11c3.68,6.02,10.82,10.6,23.43,10.6,19.41,0,31.68-9.82,31.68-29.9,0-16.73-10.49-27.44-31.35-27.44ZM299.89,93.02c-9.93,0-15.06-4.46-15.4-10.04v-1.23c0-7.92,5.8-12.61,15.28-12.61s13.83,4.35,13.83,11.49c0,8.48-4.24,12.38-13.72,12.38ZM415.57,54.65h1.8v5.1h1.58v-5.1h1.79v-1.24h-5.17v1.24ZM427.03,53.41l-1.35,4.22h-.02l-1.36-4.22h-2.48v6.34h1.48l-.03-4.98h.02l1.61,4.98h1.36l1.6-4.98h.02l-.04,4.98h1.58v-6.34h-2.4ZM95.71,40.51c3.34,2.99,6.19,6.59,8.37,10.69.57,1.07,1.08,2.17,1.56,3.3l3.24-1.36c-.52-1.23-1.08-2.44-1.7-3.6-2.38-4.47-5.48-8.39-9.12-11.65-3.71-3.33-7.97-5.97-12.56-7.82-4.56-1.84-9.46-2.9-14.47-3.07-.48-.02-.96-.02-1.43-.02-4.38,0-8.83.68-13.21,2.11-4.87,1.59-9.25,3.97-13.06,6.95-3.95,3.09-7.28,6.84-9.88,11.01-2.62,4.2-4.5,8.85-5.53,13.72-1.02,4.78-1.22,9.78-.5,14.79.35,2.41.9,4.83,1.68,7.23.78,2.4,1.76,4.68,2.9,6.83,2.38,4.47,5.48,8.39,9.12,11.65,3.71,3.33,7.97,5.97,12.56,7.82,4.56,1.84,9.46,2.9,14.47,3.07.48.02.96.02,1.43.02,4.38,0,8.83-.68,13.21-2.11,4.87-1.59,9.25-3.97,13.06-6.95,3.95-3.09,7.28-6.84,9.88-11.01,1.26-2.03,2.35-4.16,3.26-6.36l-3.26-1.34c-.83,2.02-1.83,3.98-2.99,5.84-2.39,3.83-5.44,7.27-9.06,10.1-3.49,2.74-7.52,4.92-11.98,6.38-4.02,1.31-8.11,1.94-12.12,1.94-.44,0-.88,0-1.32-.02-4.6-.16-9.09-1.13-13.28-2.82-4.21-1.7-8.12-4.12-11.52-7.17-3.34-2.99-6.19-6.59-8.37-10.69-1.05-1.98-1.95-4.07-2.66-6.27-.72-2.2-1.23-4.42-1.54-6.64-.66-4.6-.47-9.18.46-13.57.95-4.47,2.68-8.73,5.08-12.59,2.39-3.83,5.44-7.27,9.06-10.1,3.49-2.74,7.52-4.92,11.98-6.38,4.02-1.31,8.11-1.94,12.12-1.94.44,0,.88,0,1.32.02,4.6.16,9.09,1.13,13.28,2.82,4.21,1.7,8.12,4.12,11.52,7.17ZM70.26,53.54c-.3-.52-1.04-.52-1.34,0-2.75,4.77-7.23,11.39-12.84,15.43-.42.3-.42.94,0,1.24,5.61,4.04,10.09,10.66,12.84,15.43.3.52,1.04.52,1.34,0,2.75-4.77,7.23-11.38,12.84-15.43.42-.3.42-.94,0-1.24-5.61-4.04-10.09-10.66-12.84-15.43ZM225.59,47.39h25.66v-15.73h-25.66v15.73ZM192.23,52.41c-16.18,0-24.1,7.25-27.22,16.85h-.22c.22-4.35.34-11.04.34-13.39v-25.32h-25.66v78.09h25.66v-24.32c0-8.59,6.8-12.16,15.06-12.16,10.04,0,12.94,4.13,12.94,10.26v26.22h25.66v-33.36c0-13.72-7.25-22.87-26.55-22.87Z"/>
</svg>