<?xml version="1.0" encoding="UTF-8"?>
<svg id="Layer_1" data-name="Layer 1" xmlns="http://www.w3.org/2000/svg" xmlns:xlink="http://www.w3.org/1999/xlink" viewBox="0 0 760.46 94.62">
  <defs>
    <style>
      .cls-1 {
        fill: none;
      }

      .cls-2 {
        fill: url(#linear-gradient);
      }

      .cls-3 {
        clip-path: url(#clippath);
      }
    </style>
    <clipPath id="clippath">
      <path class="cls-1" d="M743.38,11.58h3.62c1.39,0,1.98.76,1.98,1.85s-.59,1.89-1.98,1.89h-3.62v-3.74ZM740.23,8.84v13.63h3.16v-4.46h2.52l3.03,4.46h3.74l-3.62-4.71c2.1-.63,3.15-2.27,3.15-4.38,0-2.69-1.85-4.54-4.88-4.54h-7.11ZM734.38,15.66c0-6.52,4.63-11.27,11.44-11.27s11.44,4.75,11.44,11.27-4.58,11.28-11.44,11.28-11.44-4.75-11.44-11.28M731.18,15.66c0,8.25,6.06,14.3,14.64,14.3s14.64-6.06,14.64-14.3-6.06-14.3-14.64-14.3-14.64,6.06-14.64,14.3M161.94.01l-13.45,27.57h73.29l-9.73,19.94h-38.49l5.9-12.09h-34.62l-28.87,59.15h34.67l13.52-27.71h61.21c7.25,0,13.88-4.14,17.06-10.66l14.1-28.89C262.68,14.71,253.49.01,239.46.01h-77.52ZM57.9,0c-7.16,0-13.7,4.08-16.85,10.51l-5.56,11.34,39.81,45H13.53L0,94.58h92.57c7.24,0,13.82-4.16,16.94-10.68l6.94-14.54-37.29-41.8h38.81v.02s19.49,0,19.49,0L150.92.01h-2.55,0s-90.47,0-90.47,0ZM596.01,51.29c4.65-9.47,6.7-17.29,7.12-23.72h59.92l-72.13,32.86c1.76-2.82,3.47-5.85,5.09-9.14M615.15,0l-11.94,24.91C603.12,5.35,587.15.01,587.15.01h-85.83l-28.88,59.17h34.62l15.42-31.6h50.55l-19.18,39.29h-161.11s4.87-9.98,4.87-9.98h55.32l9.38-19.36h-55.89l5.5-9.97h66.42v.02L491.81,0h-101.05l-30.11,61.68c-.83,1.7-1.42,3.43-1.8,5.17h-76.54l4.87-9.97h55.32l9.38-19.36h-55.88l5.5-9.97h66.42v.02L381.38,0h-101.05l-30.11,61.68c-7.41,15.19,3.65,32.9,20.55,32.9h77.44l10.19-20.89c.99,11.19,10.29,20.89,22.79,20.89l164.51.04s20.75-2.97,38.74-25.11l-5.76,14.49c-2.02,5.09,1.72,10.61,7.2,10.61h90.64l13.46-27.59h-66.82l86.1-39.29,7.96-16.63c2.46-5.14-1.29-11.1-6.99-11.1h-95.08Z"/>
    </clipPath>
    <linearGradient id="linear-gradient" x1="-218.78" y1="648.57" x2="-217.78" y2="648.57" gradientTransform="translate(216329.22 642246.19) scale(990.18 -990.18)" gradientUnits="userSpaceOnUse">
      <stop offset="0" stop-color="#fff"/>
      <stop offset=".32" stop-color="#ffe471"/>
      <stop offset=".64" stop-color="#f44768"/>
      <stop offset=".96" stop-color="#8032fc"/>
      <stop offset="1" stop-color="#8032fc"/>
    </linearGradient>
  </defs>
  <g class="cls-3">
    <rect class="cls-2" x="0" width="760.46" height="94.62"/>
  </g>
</svg>