<?xml version="1.0" encoding="UTF-8"?>
<svg id="Layer_1" xmlns="http://www.w3.org/2000/svg" xmlns:xlink="http://www.w3.org/1999/xlink" version="1.1" viewBox="0 0 1875.9530299 693.7419548">
  <!-- Generator: Adobe Illustrator 29.7.1, SVG Export Plug-In . SVG Version: 2.1.1 Build 8)  -->
  <defs>
    <style>
      .st0 {
        fill: none;
      }

      .st1 {
        fill: url(#linear-gradient1);
      }

      .st2 {
        fill: url(#linear-gradient);
      }
    </style>
    <linearGradient id="linear-gradient" x1="937.976515" y1="575.877203" x2="937.976515" y2="-166.5330717" gradientUnits="userSpaceOnUse">
      <stop offset=".0181465" stop-color="#5802a3"/>
      <stop offset=".2229161" stop-color="#831cd3"/>
      <stop offset=".7600641" stop-color="#ff2ca5"/>
    </linearGradient>
    <linearGradient id="linear-gradient1" x1="914.2828008" y1="578.5724492" x2="914.2828008" y2="-55.1474329" gradientUnits="userSpaceOnUse">
      <stop offset="0" stop-color="#ba85ff"/>
      <stop offset=".0314839" stop-color="#c293ff"/>
      <stop offset=".1124451" stop-color="#d5b4ff"/>
      <stop offset=".19982" stop-color="#e4cfff"/>
      <stop offset=".2945236" stop-color="#f0e4ff"/>
      <stop offset=".4000649" stop-color="#f8f3ff"/>
      <stop offset=".5251617" stop-color="#fdfcff"/>
      <stop offset=".7196196" stop-color="#fff"/>
    </linearGradient>
  </defs>
  <path class="st2" d="M1698.2800733,430.6352596c13.2384033-16.375,19.9510498-35.4331055,19.9510498-56.6450195v-94.9008789c0-12.4677734-4.6679688-23.8461914-13.5141602-32.9208984l-47.387207-47.387207c-8.9606934-9.1699219-20.5186768-14.0169678-33.4240723-14.0169678h-147.8098145c-7.6547852,0-14.8544922,1.7894287-21.3359375,5.229248-.0775146-.0782471-.1491699-.15979-.2271729-.237793-.0777588-.0780029-.1590576-.1495361-.2374268-.2266846-.0773926-.0783691-.1491699-.1599121-.2270508-.2380371l-28.8041992-28.8039551c-.0776367-.0778809-.3864746-.3864746-.4645996-.4645996-9.3537598-9.3439941-21.2216797-14.282959-34.3208008-14.282959h-143.611084c-9.5212402,0-18.3803711,2.5500488-26.1193848,7.4294434-.0456543-.045166-.0932617-.0870361-.1384277-.131958l-20.668457-20.6795654c-9.4915771-9.4812012-21.5773926-14.4926758-34.9511719-14.4926758h-38.6320801c-13.1094971,0-25.0524902,5.013916-34.5379639,14.4995117-8.7492676,8.7492676-13.6837158,19.7155762-14.3986816,31.8677979-.0181885-.0181885-.0366211-.0355225-.0548096-.0535889-.0773926-.078125-.1517334-.1572266-.2294922-.2349854l-2.322998-2.322876c-15.4787598-15.470459-34.4442139-23.3144531-56.369873-23.3144531h-125.5549316c-13.3837891,0-25.3994141,4.9414062-34.7478027,14.2897949-9.3486328,9.3483887-14.289917,21.3640137-14.289917,34.7478027v23.2454834c-.0616455-.0623779-.1209717-.1254883-.1832275-.1877441-.0776367-.0777588-.1567383-.1519775-.2347412-.2293701-.0775146-.0780029-.1517334-.1572266-.2298584-.2351074-.0777588-.0777588-.1567383-.1520996-.2347412-.2294922-.0773926-.0780029-.1517334-.1572266-.2298584-.2351074-.0777588-.0777588-.1567383-.1522217-.2346191-.2294922-.0775146-.0778809-.1519775-.1572266-.2299805-.2351074-.0776367-.0776367-.1567383-.1520996-.2346191-.2294922-.0773926-.0780029-.1518555-.1572266-.2299805-.2351074-.0776367-.0777588-.1566162-.1520996-.2346191-.2293701-.0775146-.0780029-.1518555-.1573486-.2298584-.2352295-15.4788818-15.4702148-34.444458-23.3143311-56.369751-23.3143311h-125.5547485c-9.0291138,0-17.4312744,2.2578125-24.8161011,6.5914307-.0172119-.0170898-.0326538-.0349121-.0496216-.0517578-.0780029-.0780029-.1593628-.1496582-.2377319-.2265625l-17.4163208-17.4277344c-9.354248-9.3435059-21.222229-14.2824707-34.3209229-14.2824707h-143.6110229c-12.0854492,0-23.1069336,4.1013184-32.1171875,11.8782959-.05896-.059082-.1156006-.1195068-.1745605-.1784668-.0776978-.0777588-.3868408-.3865967-.4645386-.4644775l-25.0874023-25.0874023c-15.4787598-15.4703369-34.4442749-23.3143311-56.3699951-23.3143311h-118.4161377c-13.1089478,0-24.9793701,4.9412842-34.328125,14.2896729-9.3482056,9.3483887-14.2894287,21.3640137-14.2894287,34.7478027v246.0704346c0,13.1196289,4.9436035,24.9923096,14.2828369,34.3212891l47.387146,47.387207c9.3427124,9.3526611,21.215271,14.2965088,34.3348389,14.2965088h125.9746094c14.3317261,0,27.3960571-3.3513184,39.046814-9.9892578.0421143.0422363.0808105.0864258.1231689.1286621l32.2938232,32.2832031c.0770264.078125.1486816.159668.2268066.2374268,9.4799805,9.4903564,21.5706177,14.5063477,34.9644775,14.5063477h143.611145c8.831543,0,17.0968628-2.2521973,24.4116821-6.5743408.006897.0070801.0130005.0141602.0198975.020874.078125.078125,17.576355,17.5762939,17.6540527,17.6540527,9.3427124,9.3527832,21.3607788,14.2965088,34.7549438,14.2965088h39.8917236c13.1092529,0,24.9796143-4.9414062,34.328125-14.2897949,1.3134766-1.3135986,2.5373535-2.6821289,3.6755371-4.0974121.0270996.0270996.0556641.052002.0828857.0792236.0960693.0977783.1893311.1975098.2867432.2945557.0581055.0583496.1191406.1118164.1777344.1699219.0961914.0977783.1894531.1975098.2867432.2946777.0581055.0583496.1192627.1118164.1778564.1699219.0961914.0976562.1894531.1975098.2868652.2946777.0579834.0583496.1190186.1119385.1777344.1699219.0961914.0976562.1893311.1975098.2867432.2946777.0579834.0583496.1192627.1118164.1778564.1699219.0961914.0976562.1893311.1975098.2867432.2945557.0581055.0584717.1192627.1119385.1778564.1700439.0961914.0976562.189209.1975098.2866211.2946777.0581055.0583496.1192627.1118164.1779785.1699219.0961914.0976562.1893311.1975098.2867432.2946777.0579834.0582275.1190186.1118164.1778564.1699219.0960693.0976562.189209.1975098.2866211.2945557.0581055.0584717.1191406.1119385.1778564.1700439.0963135.0976562.1893311.1975098.2867432.2944336,9.3425293,9.3531494,21.215332,14.296875,34.3348389,14.296875h37.7926025c15.7086182,0,29.1427002-6.7288818,38.8457031-19.4533691,8.7971191-11.5281982,11.8615723-24.689209,8.9993896-38.3361816,8.8143311,7.4238281,19.6192627,11.3314209,31.5144043,11.3314209h39.8919678c13.109375,0,24.9797363-4.9412842,34.3278809-14.2896729,1.3140869-1.3138428,2.5369873-2.6816406,3.675415-4.0974121.0272217.0273438.0556641.0523682.0831299.0793457.0963135.0976562,3.9060059,3.9141846,4.0031738,4.0113525,9.3427734,9.3526611,21.2155762,14.2963867,34.3352051,14.2963867h37.7921143c15.7091064,0,29.1429443-6.7288818,38.845459-19.4534912,3.3797607-4.4287109,5.9136963-9.0983887,7.5910645-13.9439697,9.2055664,8.4819336,20.5401611,12.9559326,32.9229736,12.9559326h38.6323242c9.5209961,0,18.380127-2.5501709,26.1196289-7.4298096.0406494.0408936.0838623.0787354.1245117.1192627l19.2751465,19.2854004c.0776367.0778809,1.3156738,1.3157959,1.3936768,1.3935547,9.4796143,9.4899902,21.5703125,14.5064697,34.9643555,14.5064697h143.6112061c4.3969727,0,8.6499023-.5688477,12.7194824-1.6602783l27.0141602,27.0177002c8.9309082,8.9412842,20.4411621,13.6673584,33.2858887,13.6673584h165.0267334c11.4606934,0,21.8067627-4.2880859,29.918457-12.4000244,8.1124268-8.1120605,12.4005127-18.4576416,12.4005127-29.9189453v-36.1126709c0-11.6623535-3.9880371-22.6174316-11.8598633-32.5687256-1.3242188-1.6716309-2.6699219-3.1719971-4.0267334-4.5272217l-16.7247314-16.7248535c-.0161133-.0161133-.0319824-.0314941-.0476074-.0476074,4.5632324-3.8110352,8.8084717-8.1195068,12.7078857-12.9418945Z"/>
  <path class="st1" d="M582.5802272,177.3310051h-143.611084c-8.680481,0-16.1011353,3.0837402-22.2555542,9.2380981-6.1609497,6.1610107-9.2380981,13.5817261-9.2380981,22.2554321v244.81073c0,8.6806641,3.0771484,16.1012573,9.2380981,22.2557373,6.1544189,6.1608276,13.5750732,9.2380981,22.2555542,9.2380981h143.611084c8.3982544,0,15.602478-3.0050049,21.6256104-9.0281982,6.0166016-6.0165405,9.0282593-13.2272339,9.0282593-21.6256714v-25.6148682c0-8.3981323-3.0116577-15.5368652-9.0282593-21.4157715-6.0231323-5.8786621-13.227356-8.8179932-21.6256104-8.8179932h-73.4852295v-15.1170044h65.9267578c8.3983154,0,15.5368652-3.0049438,21.4156494-9.0281372,5.8788452-6.0166016,8.8182373-13.2272949,8.8182373-21.6257324v-28.1343384c0-8.3984375-2.9393921-15.602478-8.8182373-21.6256714-5.8787842-6.0166016-13.017334-9.0281982-21.4156494-9.0281982h-65.9267578v-15.1170044h73.4852295c8.3982544,0,15.602478-2.9393311,21.6256104-8.8182983,6.0166016-5.8786011,9.0282593-13.017334,9.0282593-21.4154663v-40.7318726c0-8.3983154-3.0116577-15.602478-9.0282593-21.6256714-6.0231323-6.0165405-13.227356-9.0281982-21.6256104-9.0281982ZM332.3141139,296.3731804h-7.5584717v-4.6192017c17.0721436,0,31.6314087-6.0165405,43.6712036-18.0563354,12.0332031-12.0331421,18.0563354-26.5924072,18.0563354-43.6712036v-28.1343384c0-17.0721436-6.0231323-31.6314087-18.0563354-43.6712036-12.0397949-12.0331421-26.5990601-18.0563354-43.6712036-18.0563354h-118.4161987c-8.3983154,0-15.6090088,3.0115967-21.6256104,9.0281982-6.0231934,6.0231934-9.0281982,13.3716431-9.0281982,22.0454712v246.0704956c0,8.3984985,3.0050049,15.6091309,9.0281982,21.6257324,6.0166016,6.0231934,13.2272949,9.0281372,21.6256104,9.0281372h125.9746704c17.0721436,0,31.6314697-6.0165405,43.6712036-18.0563354,12.0332031-12.0331421,18.0563965-26.5924072,18.0563965-43.6712036v-28.1343384c0-17.0721436-6.0231934-31.6314087-18.0563965-43.6712036-12.0397339-12.0331421-26.5990601-18.0563354-43.6712036-18.0563354ZM292.4221461,390.4341545h-15.1170044v-67.6065063h15.1170044v67.6065063ZM292.4221461,265.2995109h-15.1170044v-67.6065063h15.1170044v67.6065063ZM1596.1914333,397.1491203c16.5145264-3.6350098,30.0897217-12.0331421,40.7318115-25.1950684,10.6357422-13.1552734,15.9567871-28.2722778,15.9567871-45.3510742v-94.9008789c0-7.8339233-2.8015137-14.6247559-8.3983154-20.3657837-5.6032715-5.734375-12.4595947-8.6082153-20.5758057-8.6082153h-147.8103027c-7.8405762,0-14.5592041,2.8738403-20.1560059,8.6082153-5.6032715,5.7410278-8.3981934,12.5318604-8.3981934,20.3657837v39.8922119c0,7.0007935,2.585083,12.9517212,7.7683105,17.8464355,5.1767578,4.901123,11.265625,7.0727539,18.2663574,6.5083618l77.6844482-5.8786011v15.1170044l-60.0479736,13.017334c-16.5209961,3.6416626-30.0961914,12.1117554-40.7316895,25.4049683-10.642334,13.2994995-15.9567871,28.3442383-15.9567871,45.1408081v92.8012695c0,8.1228638,2.7949219,14.9793701,8.3981934,20.5758057,5.5968018,5.6033936,12.453125,8.3984375,20.5759277,8.3984375h165.0266113c6.71875,0,12.4533691-2.3751831,17.2165527-7.1386719,4.7570801-4.7568359,7.1386719-10.4978638,7.1386719-17.2164307v-36.1126709c0-7.5585327-2.6638184-14.6972046-7.9783936-21.4157715-5.3210449-6.7185669-11.3377686-9.7958374-18.0562744-9.2380981l-90.7019043,5.8789673v-14.6972046l60.0479736-13.4371338ZM1164.9901393,135.8285026h-38.6322021c-8.3983154,0-15.6812744,3.0837402-21.8355713,9.2380371-6.1610107,6.1610107-9.2381592,13.5817261-9.2381592,22.2554321v245.230896c0,8.3981323,3.0771484,15.6810913,9.2381592,21.8355713,6.1542969,6.1608276,13.4372559,9.2380981,21.8355713,9.2380981h38.6322021c8.6738281,0,16.0944824-3.0772705,22.2556152-9.2380981,6.1542969-6.15448,9.2380371-13.437439,9.2380371-21.8355713v-245.230896c0-8.6737061-3.0837402-16.0944214-9.2380371-22.2554321-6.1611328-6.1542969-13.5817871-9.2380371-22.2556152-9.2380371ZM1390.4786647,163.7033195h-143.6113281c-8.6804199,0-16.1010742,3.0837402-22.2553711,9.2380981-6.1610107,6.1609497-9.2381592,13.5817261-9.2381592,22.2553711v244.810791c0,8.6806641,3.0771484,16.1012573,9.2381592,22.2557373,6.1542969,6.1608276,13.5749512,9.2380371,22.2553711,9.2380371h143.6113281c8.3981934,0,15.6025391-3.0049438,21.6253662-9.0281372,6.0169678-6.0166016,9.0281982-13.2272339,9.0281982-21.6257324v-25.6148071c0-8.3981934-3.0112305-15.5368652-9.0281982-21.4157715-6.0228271-5.8786621-13.2271729-8.8179932-21.6253662-8.8179932h-73.4853516v-15.1170044h65.9267578c8.3981934,0,15.5368652-3.0049438,21.4155273-9.0281982,5.8789062-6.0165405,8.8183594-13.2272339,8.8183594-21.6256714v-28.1343384c0-8.3984375-2.9394531-15.602478-8.8183594-21.6257324-5.8786621-6.0165405-13.017334-9.0281372-21.4155273-9.0281372h-65.9267578v-15.1170044h73.4853516c8.3981934,0,15.6025391-2.9393311,21.6253662-8.8182983,6.0169678-5.8786621,9.0281982-13.017334,9.0281982-21.4154663v-40.7318726c0-8.3983154-3.0112305-15.602478-9.0281982-21.6256714-6.0228271-6.0166016-13.2271729-9.0281982-21.6253662-9.0281982ZM784.9755519,202.7280998h-125.5547485c-8.680481,0-16.0289307,3.0115967-22.0455322,9.0281982-6.0231934,6.0231934-9.0281982,13.3716431-9.0281982,22.0454712v245.6506958c0,8.6803589,3.0050049,16.0289307,9.0281982,22.0455322,6.0166016,6.0231934,13.3650513,9.0281372,22.0455322,9.0281372h39.8919678c8.3982544,0,15.602417-3.0049438,21.6256714-9.0281372,6.0165405-6.0166016,9.0281372-13.3651733,9.0281372-22.0455322v-81.0439453h15.1170654v81.0439453c0,8.6803589,3.0049438,16.0289307,9.0281372,22.0455322,6.0166016,6.0231934,13.2272339,9.0281372,21.6256714,9.0281372h37.7922974c10.0780029,0,18.2663574-4.1270752,24.5651245-12.3875732,6.2987671-8.2539062,7.906189-17.2820435,4.8289795-27.0845337l-23.5151978-83.1433105c8.3983154-5.5967407,15.0447388-12.9450684,19.9459839-22.0455322,4.8945923-9.093811,7.3484497-18.8239746,7.3484497-29.1842041v-72.2253418c0-17.0721436-6.0230713-31.6314087-18.0563354-43.6712036-12.0397949-12.0331421-26.5990601-18.0563354-43.6712036-18.0563354ZM745.0836452,340.8803825h-15.1170654v-80.6238403h15.1170654v80.6238403ZM1018.4441188,156.270031h-125.5548096c-8.680481,0-16.0289917,3.0115967-22.0455322,9.0281982-6.0231934,6.0231934-9.0281982,13.3716431-9.0281982,22.0454712v245.6506958c0,8.6803589,3.0050049,16.0289307,9.0281982,22.0455322,6.0165405,6.0231934,13.3650513,9.0281372,22.0455322,9.0281372h39.8919678c8.3983154,0,15.602478-3.0049438,21.6256714-9.0281372,6.0166016-6.0166016,9.0281982-13.3651733,9.0281982-22.0455322v-81.0439453h15.1169434v81.0439453c0,8.6803589,3.0049438,16.0289307,9.0281372,22.0455322,6.0166016,6.0231934,13.2272949,9.0281372,21.6257324,9.0281372h37.7922363c10.078125,0,18.2664795-4.1270752,24.5651855-12.3875732,6.2987061-8.2539062,7.90625-17.2820435,4.8289795-27.0845337l-23.5152588-83.1433105c8.3983154-5.5967407,15.0449219-12.9450684,19.9460449-22.0455322,4.8945312-9.093811,7.3485107-18.8239746,7.3485107-29.1842041v-72.2253418c0-17.0721436-6.0231934-31.6314087-18.0563965-43.6712036-12.0396729-12.0331421-26.598999-18.0563354-43.6711426-18.0563354ZM978.55209,294.4223137h-15.1169434v-80.6238403h15.1169434v80.6238403Z"/>
  <g>
    <rect class="st0" x="963.4352104" y="213.7985105" width="15.1170217" height="80.6238133"/>
    <rect class="st0" x="277.3051118" y="197.6930449" width="15.1170217" height="67.6064788"/>
  </g>
</svg>