<?xml version="1.0" encoding="UTF-8"?>
<svg id="Layer_1" data-name="Layer 1" xmlns="http://www.w3.org/2000/svg" viewBox="0 0 1314.42 235.2">
  <defs>
    <style>
      .cls-1 {
        fill: #ef2929;
      }
    </style>
  </defs>
  <path class="cls-1" d="M1264.07,160.2c0-14.18,10.42-24.6,25.17-24.6s25.17,10.42,25.17,24.6-10.42,24.59-25.17,24.59-25.17-10.42-25.17-24.59ZM1308.92,160.2c0-11.21-7.96-19.39-19.68-19.39s-19.68,8.17-19.68,19.39,7.88,19.39,19.68,19.39,19.68-8.17,19.68-19.39ZM1276.52,160.2c0-7.16,5.28-12.44,12.73-12.44,6.22,0,10.92,3.91,12.15,9.33h-5.57c-1.16-2.53-3.55-4.05-6.58-4.05-4.19,0-7.16,2.89-7.16,7.16s2.97,7.16,7.16,7.16c3.04,0,5.43-1.52,6.58-4.05h5.57c-1.23,5.43-5.93,9.33-12.15,9.33-7.45,0-12.73-5.28-12.73-12.44Z"/>
  <g>
    <path class="cls-1" d="M42.28,126.58v-31.45H0v-40.96h33.03c12.16,0,17.18-5.02,17.18-17.18v-18.5h47.57v33.03h76.64v43.6h-76.64v31.71c0,9.25,5.02,14.27,15.06,14.27s15.33-5.02,15.33-11.63v-7.93h58.14v3.44c0,39.91-23.78,63.69-72.15,63.69s-71.88-22.46-71.88-62.1Z"/>
    <path class="cls-1" d="M198.2,118.92V50.21h58.14v54.97c0,22.2,12.42,34.62,31.98,34.62s32.24-12.42,32.24-34.62v-54.97h58.14v134.78h-58.14l7.93-38.32h-5.29c-8.46,29.6-28.81,42.02-57.35,42.02-41.49,0-67.65-26.16-67.65-69.77Z"/>
    <path class="cls-1" d="M394.54,235.2V50.21h58.14l-7.93,34.36h5.29c8.46-25.63,28.81-38.05,63.16-38.05,43.08,0,71.62,28.54,71.62,71.09s-28.54,71.09-71.62,71.09c-34.36,0-54.7-12.42-63.16-38.05h-5.29c3.96,12.42,7.93,30.39,7.93,48.89v35.68h-58.14ZM526.68,117.6c0-14.27-11.89-26.16-36.47-26.16s-36.2,11.89-36.2,26.16,11.89,26.16,36.2,26.16,36.47-11.89,36.47-26.16Z"/>
    <path class="cls-1" d="M596.71,184.99V0h58.14v184.99h-58.14Z"/>
    <path class="cls-1" d="M666.74,117.6c0-42.55,28.54-71.09,71.62-71.09,34.36,0,54.7,12.42,63.16,38.05h5.29l-7.93-34.36h58.14v134.78h-58.14l7.93-34.36h-5.29c-8.46,25.63-28.81,38.05-63.16,38.05-43.08,0-71.62-28.54-71.62-71.09ZM797.55,117.6c0-14.27-11.89-26.16-36.2-26.16s-36.47,11.89-36.47,26.16,11.89,26.16,36.47,26.16,36.2-11.89,36.2-26.16Z"/>
    <path class="cls-1" d="M871.54,118.92V50.21h58.14v54.97c0,22.2,12.42,34.62,31.98,34.62s32.24-12.42,32.24-34.62v-54.97h58.14v134.78h-58.14l7.93-38.32h-5.29c-8.46,29.6-28.81,42.02-57.35,42.02-41.49,0-67.65-26.16-67.65-69.77Z"/>
    <path class="cls-1" d="M1062.6,136.1v-1.32h59.46v.53c0,7.4,6.34,13.74,30.13,13.74,25.63,0,30.13-4.49,30.13-8.98,0-20.35-118.39,10.84-118.39-48.89,0-23.26,21.41-44.66,88.27-44.66,61.31,0,86.42,24.84,88.27,52.59h-59.46c-.79-6.61-7.4-12.95-28.81-12.95-24.31,0-28.81,4.49-28.81,8.46,0,19.82,118.39-11.1,118.39,48.36,0,24.84-20.88,45.72-89.59,45.72s-89.59-23.52-89.59-52.59Z"/>
  </g>
</svg>