<?xml version="1.0" encoding="UTF-8"?>
<svg id="Layer_1" data-name="Layer 1" xmlns="http://www.w3.org/2000/svg" viewBox="0 0 228.59 63.09">
  <defs>
    <style>
      .cls-1 {
        fill: #ff008a;
      }
    </style>
  </defs>
  <g id="Layer_2" data-name="Layer 2">
    <g id="Layer_1-2" data-name="Layer 1-2">
      <path class="cls-1" d="M94.53,11.64h-26.65V51.45h13.06v-6.05h13.59c12.48,0,18.74-4.46,18.74-15.55v-2.62c0-11.13-6.27-15.59-18.74-15.59Zm5.68,18.21c0,2.65-1.91,4-5.68,4h-13.59v-10.62h13.59c3.77,0,5.68,1.33,5.68,4v2.62Z"/>
      <rect class="cls-1" x="117.38" y="11.64" width="13.06" height="39.81"/>
      <polygon class="cls-1" points="167.35 33.14 149.09 11.64 136.03 11.64 136.03 51.45 149.09 51.45 149.09 29.95 167.35 51.45 180.41 51.45 180.41 11.64 167.35 11.64 167.35 33.14"/>
      <polygon class="cls-1" points="186.02 23.21 208.16 23.21 186.02 41.47 186.02 51.45 228.59 51.45 228.59 39.88 206.41 39.88 228.59 21.62 228.59 11.64 186.02 11.64 186.02 23.21"/>
      <path class="cls-1" d="M60.89,39.31c-3.29,4.18-10.89,4.92-13.64,4.92H15.38v-4.42L0,51.45l15.34,11.64v-4.86h31.45c9.26-.07,16.76-7.54,16.87-16.8-.08-1.99-.42-3.95-1-5.85-.36,1.34-.96,2.6-1.77,3.73Z"/>
      <path class="cls-1" d="M5.54,23.78c3.28-4.18,10.84-4.91,13.63-4.92h31.83v4.42l15.34-11.64L51,0V4.82H19.63c-9.28,.08-16.78,7.57-16.86,16.85,.08,1.98,.42,3.94,1,5.84,.36-1.34,.96-2.6,1.77-3.73Z"/>
      <path class="cls-1" d="M9.24,35.05c2.91,2.22,6.48,3.42,10.14,3.42h27.41c1.48,0,2.72,1.12,2.87,2.59,.51-.05,1.06-.12,1.63-.21,2.35-.39,5.52-1.3,7.27-3.45,.65-.79,1.08-1.74,1.26-2.75,.18-1.03,.12-2.1-.19-3.1h0c-.43-1.39-1.29-2.62-2.46-3.5-2.92-2.24-6.49-3.44-10.17-3.43H19.63c-1.48,0-2.72-1.12-2.87-2.59-.51,0-1.06,.12-1.63,.21-2.35,.39-5.52,1.31-7.27,3.45-.65,.79-1.08,1.74-1.26,2.75-.18,1.04-.12,2.1,.19,3.11h0c.43,1.39,1.29,2.62,2.45,3.5Z"/>
    </g>
  </g>
</svg>