<?xml version="1.0" encoding="UTF-8"?>
<svg id="Layer_1" xmlns="http://www.w3.org/2000/svg" viewBox="0 0 1393.19 672.79">
  <defs>
    <style>
      .cls-1 {
        fill: #ff0;
      }
    </style>
  </defs>
  <g>
    <polygon class="cls-1" points="555.83 0 340.7 266.17 405.85 257.28 340.04 387.91 277.39 225.64 161.54 383.92 159.45 201.83 100.74 222.62 101.63 44.64 0 332.57 76.91 305.85 76.29 672.79 260.12 389.98 337.45 616.99 535.1 173.62 479.57 180.15 555.83 0"/>
    <g>
      <path class="cls-1" d="M556.46,556.39h-81.03l68.74-321.37h81.02l-68.73,321.37Z"/>
      <path class="cls-1" d="M769.07,556.39h-170.25l68.74-321.37h81.47l-52.34,243.98h88.76l-16.38,77.38Z"/>
      <path class="cls-1" d="M804.28,556.39l68.74-321.37h99.23c63.27,0,107.42,42.79,90.58,120.63l-17.75,81.93c-16.84,78.75-58.26,118.81-123.81,118.81h-116.99ZM937.65,312.41l-35.95,167.51h16.38c16.39,0,38.24-4.55,46.43-43.24l17.76-80.57c8.19-38.69-10.48-43.7-28.23-43.7h-16.39Z"/>
      <path class="cls-1" d="M1230.37,556.39h-192.54l133.82-243.53h-70.1l16.84-77.84h180.71l-134.73,243.98h82.39l-16.39,77.38Z"/>
    </g>
  </g>
  <path class="cls-1" d="M1383.26,245.22c6.62,6.51,9.93,14.73,9.93,24.66s-3.31,17.98-9.93,24.49c-6.62,6.51-14.73,9.76-24.32,9.76s-17.69-3.25-24.32-9.76c-6.62-6.51-9.93-14.67-9.93-24.49s3.31-18.15,9.93-24.66c6.62-6.51,14.73-9.76,24.32-9.76s17.69,3.25,24.32,9.76ZM1378.38,289.48c5.31-5.31,7.96-11.84,7.96-19.61s-2.65-14.64-7.96-19.95c-5.31-5.31-11.79-7.96-19.44-7.96s-13.96,2.65-19.26,7.96c-5.31,5.31-7.96,11.96-7.96,19.95s2.65,14.3,7.96,19.61c5.31,5.31,11.73,7.96,19.26,7.96s14.13-2.65,19.44-7.96ZM1365.79,273.82l9.76,10.79h-8.22l-8.9-10.1h-5.14v10.1h-6.85v-31.51h14.55c3.88,0,6.99.94,9.33,2.83,2.34,1.88,3.51,4.42,3.51,7.62,0,5.14-2.68,8.56-8.05,10.27ZM1361,268.34c1.83,0,3.28-.43,4.37-1.28s1.63-1.97,1.63-3.34c0-2.97-2-4.45-5.99-4.45h-7.7v9.08h7.7Z"/>
</svg>