<?xml version="1.0" encoding="UTF-8"?><svg id="Layer_2" xmlns="http://www.w3.org/2000/svg" viewBox="0 0 400.04 263.99"><defs><style>.cls-1{fill:none;}.cls-1,.cls-2,.cls-3{stroke-width:0px;}.cls-2{fill:#412787;}.cls-3{fill:#ff0;}</style></defs><g id="Layer_1-2"><path class="cls-2" d="M400.04,93.24h-82.75l-2.1,9.7c-6.98-6.28-16.5-9.7-27.37-9.7h-109.44l7.32-18.46-15.11,1.65L198.15,0l-88.2,100.29-9.4-20.4-23.82,26.65-1.39-27.8-15.81,5.13-3.52-73.75L0,150.32l28.58-7.71,1.92,121.39,57.88-85.23,22.39,64.83,17.84-35.6h145.2c3,0,6.5-.26,10.21-1.02l-.56,1.02h85.99l2.22-10.49,4.5-21.26,3.38-15.98h-16.54l26.17-47.4,10.84-19.63Z"/><path class="cls-1" d="M282.82,127.73h-4.5l-9.88,46.02h4.5c4.5,0,10.51-1.25,12.76-11.88l4.88-22.13c2.25-10.63-2.88-12.01-7.75-12.01Z"/><polygon class="cls-3" points="152.47 91.4 173.42 41.9 114.32 115.03 132.22 112.59 114.14 148.47 96.92 103.89 65.1 147.38 64.52 97.35 48.39 103.06 48.64 54.17 20.72 133.27 41.85 125.93 41.68 226.74 92.18 149.04 113.42 211.41 167.72 89.6 152.47 91.4"/><polygon class="cls-3" points="170.22 106.47 151.33 194.76 173.59 194.76 192.48 106.47 170.22 106.47"/><polygon class="cls-3" points="226.5 106.47 204.12 106.47 185.23 194.76 232 194.76 236.5 173.5 212.12 173.5 226.5 106.47"/><path class="cls-3" d="M312.71,139.61c4.63-21.39-7.5-33.14-24.88-33.14h-27.26l-18.88,88.29h32.14c18.01,0,29.39-11,34.01-32.64l4.88-22.51ZM290.57,139.74l-4.88,22.13c-2.25,10.63-8.25,11.88-12.76,11.88h-4.5l9.88-46.02h4.5c4.88,0,10,1.38,7.75,12.01Z"/><polygon class="cls-3" points="377.62 106.47 327.97 106.47 323.34 127.85 342.6 127.85 305.84 194.76 358.73 194.76 363.24 173.5 340.6 173.5 377.62 106.47"/><path class="cls-3" d="M144.29,181.19c1.52,1.49,2.27,3.37,2.27,5.65s-.76,4.12-2.27,5.61c-1.52,1.49-3.37,2.23-5.57,2.23s-4.05-.74-5.57-2.23c-1.52-1.49-2.27-3.36-2.27-5.61s.76-4.16,2.27-5.65c1.52-1.49,3.37-2.23,5.57-2.23s4.05.74,5.57,2.23ZM143.18,191.33c1.22-1.22,1.82-2.71,1.82-4.49s-.61-3.35-1.82-4.57c-1.22-1.22-2.7-1.82-4.45-1.82s-3.2.61-4.41,1.82c-1.22,1.22-1.82,2.74-1.82,4.57s.61,3.27,1.82,4.49,2.69,1.82,4.41,1.82,3.23-.61,4.45-1.82ZM140.29,187.74l2.23,2.47h-1.88l-2.04-2.31h-1.18v2.31h-1.57v-7.21h3.33c.89,0,1.6.22,2.14.65.54.43.8,1.01.8,1.74,0,1.18-.61,1.96-1.84,2.35ZM139.2,186.49c.42,0,.75-.1,1-.29s.37-.45.37-.76c0-.68-.46-1.02-1.37-1.02h-1.76v2.08h1.76Z"/></g></svg>