<?xml version="1.0" encoding="UTF-8"?>
<svg id="Layer_1" data-name="Layer 1" xmlns="http://www.w3.org/2000/svg" xmlns:xlink="http://www.w3.org/1999/xlink" viewBox="0 0 974.53 276.02">
  <defs>
    <style>
      .cls-1 {
        fill: none;
      }

      .cls-2 {
        fill: url(#linear-gradient);
      }

      .cls-3 {
        clip-path: url(#clippath);
      }
    </style>
    <clipPath id="clippath">
      <path class="cls-1" d="M952.28,138.32h5.32c2.13,0,3.09,1.17,3.09,2.88s-.96,2.88-3.09,2.88h-5.32v-5.75ZM948.98,135.45v17.46h3.3v-5.96h4.05l4.36,5.96h3.99l-4.9-6.18c2.82-.69,4.31-2.77,4.31-5.59,0-3.35-2.34-5.7-6.18-5.7h-8.94ZM940.78,144.18c0-8.62,6.23-14.96,15.22-14.96s15.22,6.34,15.22,14.96-6.18,14.96-15.22,14.96-15.22-6.34-15.22-14.96M937.48,144.18c0,10.43,7.67,18.1,18.53,18.1s18.52-7.66,18.52-18.1-7.67-18.1-18.52-18.1-18.53,7.67-18.53,18.1M790.66,126.06c-.6,2.98-1.29,6.1-2.09,9.38-.79,3.28-1.54,6.3-2.23,9.08-.5,1.49-1.04,3.35-1.64,5.58-.6,2.23-1.19,4.49-1.79,6.77-.6,2.28-1.09,4.32-1.49,6.1,1.69,0,3.52-.02,5.51-.08,1.98-.05,3.99-.07,6.03-.07s4.32-.05,6.85-.15c2.53-.1,5.14-.15,7.82-.15h8.93c7.54,0,14.79-.15,21.74-.45,1.47-.06,2.93-.14,4.4-.23l.03,1.07c-.51.22-1.01.42-1.52.65-2.73,1.19-5.53,2.53-8.41,4.02-2.88,1.49-5.76,2.98-8.63,4.47-2.88,1.69-5.98,3.55-9.31,5.58-3.33,2.04-6.62,3.95-9.9,5.73-3.28,1.79-6.45,3.57-9.53,5.36-3.08,1.79-6.01,3.48-8.78,5.06-2.78,1.59-5.43,2.98-7.97,4.17-2.53,1.19-4.84,2.28-6.92,3.27-.2,1.19-.5,2.81-.89,4.84-.4,2.04-.89,4.27-1.49,6.7-.6,2.43-1.29,4.74-2.08,6.92-.6,2.58-1.27,5.39-2.01,8.41-.74,3.03-1.61,6.13-2.61,9.3h131.17c.79-3.57,1.54-6.82,2.23-9.75.69-2.93,1.39-5.83,2.08-8.71.4-1.79.92-3.75,1.56-5.88.65-2.13,1.29-4.36,1.94-6.7.64-2.33,1.16-4.44,1.56-6.33-2.08.2-4.2.32-6.33.37-2.14.05-4.52.1-7.15.15-2.63.05-5.48.08-8.56.08h-10.87c-6.25,0-12.85.05-19.8.15-2.23.03-4.47.09-6.7.16l.05-.89c3.51-1.32,7.18-2.82,11.04-4.49,4.12-1.79,8.46-4.07,13.03-6.85,3.08-1.69,5.96-3.37,8.64-5.06,2.68-1.69,5.33-3.3,7.97-4.84,2.63-1.54,5.21-3.05,7.74-4.54,2.53-1.49,4.94-2.85,7.22-4.09,2.28-1.24,4.49-2.51,6.63-3.8,2.13-1.29,4.09-2.23,5.88-2.83.4-1.69.82-3.8,1.27-6.33.45-2.53,1.04-5.06,1.79-7.59.74-2.53,1.41-4.84,2.01-6.92.5-2.68,1.12-5.41,1.86-8.19.75-2.78,1.56-5.61,2.46-8.49h-130.72ZM370.07,192.16c-.63-.02-1.27-.03-1.9-.04,1.93-3.99,3.87-8,5.84-12.02,2.83-5.76,5.68-11.32,8.56-16.67,1.79-3.47,3.55-6.8,5.29-9.97,1.73-3.18,3.3-6.2,4.69-9.08.12-.25.24-.49.36-.74,0,.22,0,.44.01.66.05,2.83.07,5.88.07,9.16s.25,6.5.74,9.68c0,4.47.05,9.16.15,14.07.1,4.91.05,9.73-.15,14.44,0,.19-.01.37-.02.56-.89.01-1.78.03-2.66.04-3.87.05-7.25.08-10.12.08-3.27,0-6.9-.05-10.87-.15M580.15,125.91c-1.29,2.48-2.81,5.26-4.54,8.34-1.74,3.08-3.65,6.28-5.73,9.6-2.08,3.33-4.27,6.8-6.55,10.42-2.28,3.62-4.67,7.32-7.15,11.09-1.19,2.38-2.66,5.11-4.39,8.19-1.74,3.08-3.47,6.16-5.21,9.23-.22.39-.45.8-.67,1.19h-.31c-.02-.42-.05-.84-.07-1.26-.15-3.13-.32-6.2-.52-9.23-.2-3.03-.45-5.73-.74-8.11-.4-3.97-.84-7.77-1.34-11.39-.5-3.62-.92-7.07-1.27-10.35-.35-3.28-.69-6.38-1.04-9.3-.35-2.93-.62-5.73-.82-8.41h-67.29c-1.59,7.25-3.38,15.29-5.36,24.12-1.99,8.83-4.52,19.35-7.59,31.56-2.98,11.81-5.61,22.09-7.89,30.82-.73,2.79-1.47,5.53-2.21,8.25-.49-4.73-.96-9.71-1.38-14.95-.5-6.15-.99-12.48-1.49-18.98-.5-6.5-.92-12.9-1.27-19.21-.35-6.3-.67-12.18-.97-17.64-.3-5.46-.52-10.22-.67-14.29-.15-4.07-.27-7.3-.37-9.68h-92.75c-1.09,2.38-2.73,5.61-4.91,9.68-2.18,4.07-4.72,8.84-7.59,14.29-2.88,5.46-6.1,11.32-9.68,17.57-3.57,6.25-7.15,12.6-10.72,19.06-3.57,6.45-7.17,12.8-10.8,19.06-3.62,6.25-7.05,12.14-10.27,17.64-3.22,5.51-6.03,10.3-8.41,14.37h59.26c1.29-2.48,2.78-5.81,4.47-9.98,1.25-3.1,2.7-6.47,4.34-10.12h36.58c-.02.45-.03.9-.05,1.34-.15,3.97-.47,7.57-.97,10.8-.5,3.23-.89,5.88-1.19,7.96h99.31c.79-3.47,1.51-6.82,2.16-10.05.64-3.22,1.41-6.55,2.31-9.98.89-3.42,1.76-6.92,2.61-10.5.84-3.57,1.76-7.29,2.75-11.17.79-3.28,1.46-6.52,2.01-9.75.54-3.22,1.07-6.38,1.56-9.45.18-1.14.38-2.3.58-3.48l.87-.19c.1,1.06.21,2.13.33,3.22.4,3.47.77,6.8,1.12,9.97.35,3.18.57,6.01.67,8.49l9.23,42.88h27.1l28.88-40.94c1.39-2.48,3.08-5.26,5.06-8.34,1.98-3.08,3.97-6.33,5.96-9.75.74-1.27,1.46-2.55,2.17-3.82l.64.13c-.99,3.09-1.96,6.16-2.89,9.2-1.34,4.42-2.51,8.71-3.5,12.88-.89,3.97-1.84,7.64-2.83,11.02-.99,3.38-1.96,6.65-2.9,9.83-.94,3.18-1.84,6.4-2.68,9.68-.84,3.28-1.86,6.65-3.05,10.12h50.92c1.79-8.04,3.67-16.43,5.66-25.16,1.98-8.73,4.47-19.01,7.45-30.82,3.08-12.21,5.75-22.73,8.04-31.56,2.28-8.83,4.42-16.87,6.4-24.12h-66.4ZM657.42,125.91c-1.09,3.77-2.09,7.69-2.98,11.76-.89,4.07-1.84,8.39-2.83,12.95-.99,4.57-2.14,9.41-3.43,14.52-1.29,5.11-2.68,10.64-4.17,16.6-1.89,7.94-3.7,15.16-5.43,21.66-1.74,6.5-3.3,12.56-4.69,18.16-1.39,5.61-2.88,10.94-4.47,16.01h121.79c.49-1.98,1.09-4.47,1.79-7.44.69-2.98,1.34-5.76,1.94-8.34.79-3.08,1.59-6.13,2.38-9.16.79-3.03,1.49-5.48,2.08-7.37-4.17-.1-8.83-.12-13.99-.08-5.16.05-10.42.05-15.78,0-5.36-.05-10.64-.05-15.86,0-5.21.05-10.15.08-14.81.08h-5.61c.33-1.27.66-2.56,1-3.87.79-3.06,1.55-6.19,2.3-9.37,2.84.01,5.77.03,8.79.06,4.81.05,9.73.08,14.74.08s9.9.07,14.66.22c4.76.15,9.35.2,13.77.15,4.42-.05,8.46.02,12.13.22.6-2.18,1.29-4.89,2.09-8.11.79-3.22,1.61-6.45,2.46-9.68.84-3.23,1.61-5.83,2.31-7.82-3.97.2-8.16.3-12.58.3s-9.03.07-13.85.22c-4.82.15-9.73.2-14.74.15-5.01-.05-9.97-.07-14.89-.07h-8.98c.48-2.13,1.02-4.31,1.61-6.55.54-2.05,1.06-4.07,1.58-6.1h19.71c5.06,0,10.17.03,15.33.07,5.16.05,10.4.1,15.71.15,5.31.05,10.35.03,15.11-.07.3-1.69.84-3.92,1.64-6.7.79-2.78,1.44-5.56,1.93-8.34.79-2.28,1.51-4.81,2.16-7.59.64-2.78,1.21-5.01,1.71-6.7h-121.64ZM54.86,173.3c.7-2.83,1.36-5.55,2-8.16,1.24-5.11,2.4-9.9,3.5-14.37,1.09-4.47,2.13-8.76,3.13-12.88.99-4.12,1.89-8.11,2.68-11.98h19.61c10.14-1.05,36.18-8.02,28.8-60.91,0,0,31.63,29.85,28.1,56.29-.33,2.44,1.51,4.62,3.97,4.62h38.77c-.8,2.68-1.64,5.76-2.53,9.23-.89,3.48-1.79,6.8-2.68,9.98-.8,3.08-1.59,6.18-2.38,9.3-.79,3.13-1.34,5.83-1.64,8.11h-25.16c-8.24,0-19.05-.02-26.5-.07-3.89-.03-7.68-.04-11.36-.06-.35,1.35-.69,2.71-1,4.08-.7,3.03-1.39,5.88-2.08,8.56-.28,1.13-.54,2.28-.81,3.42h29.99c11.12,0,21.59-.15,31.41-.45-.6,2.18-1.27,4.71-2.01,7.59-.74,2.88-1.56,5.93-2.46,9.16-.89,3.23-1.71,6.35-2.46,9.38-.74,3.03-1.32,5.63-1.71,7.82-6.45-.2-13.2-.32-20.25-.37-7.05-.05-17.27-.1-24.71-.15-4.96-.03-9.96-.05-15-.07,0,0,0,0,0,0-.93,4.64-6.98,28.05-7.78,32.12,0,0-39.67-1.43-59.97-36.18-7.3-12.49-12.82-29.91-5.77-61.11,0,0,3.25,20.41,19.98,29.85.67.38,1.39.55,2.09.55,1.91,0,3.73-1.29,4.23-3.32M93.03,71.95c1.88,6.26,3.43,25.39-12.56,29.3-24.07,5.89-24.6-22.5-24.6-22.5C23.42,96.61-.43,133.52,0,173.27c.63,57.1,46.81,102.75,103.91,102.75,48.06,0,88.49-32.63,100.38-76.94.1,12.82-2.3,25.91-7.13,38.48h81.18l23.54-40.78c-3.41.02-14,.06-17.5.13-4.42.1-8.84.15-13.25.15s-8.54.02-12.36.07c-1.23.02-2.42.03-3.58.04.44-1.66.89-3.36,1.35-5.1.84-3.22,1.56-6.38,2.16-9.45,1.39-4.96,2.7-9.83,3.95-14.59,1.24-4.76,2.43-9.33,3.57-13.7,1.14-4.36,2.16-8.36,3.05-11.98.89-3.62,1.69-6.85,2.38-9.68.69-2.83,1.34-5.09,1.93-6.77h-57.92c-.6,3.48-1.59,8.04-2.98,13.7-1.29,5.26-2.72,11.16-4.27,17.66-.9-16.53-6.9-44.73-33.38-73.54C144.1,50.04,95.78,41.21,105.59,0c0,0-24.85,22.24-12.56,71.95"/>
    </clipPath>
    <linearGradient id="linear-gradient" x1="-472.36" y1="679.13" x2="-471.36" y2="679.13" gradientTransform="translate(1252033.48 -869437.26) rotate(-90) scale(1842.87 -1842.87)" gradientUnits="userSpaceOnUse">
      <stop offset="0" stop-color="#f92342"/>
      <stop offset=".02" stop-color="#f92342"/>
      <stop offset=".14" stop-color="#f92541"/>
      <stop offset=".23" stop-color="#fa2f3e"/>
      <stop offset=".3" stop-color="#fb3f3a"/>
      <stop offset=".38" stop-color="#fe5635"/>
      <stop offset=".4" stop-color="#ff6033"/>
      <stop offset=".8" stop-color="#fffa00"/>
      <stop offset="1" stop-color="#fffa00"/>
    </linearGradient>
  </defs>
  <g class="cls-3">
    <rect class="cls-2" x="44.76" y="-304.28" width="884.58" height="884.58" transform="translate(45.07 384.82) rotate(-45)"/>
  </g>
</svg>